<?xml version="1.0" encoding="utf-8"?>
<!-- Generator: $$$/GeneralStr/196=Adobe Illustrator 27.6.0, SVG Export Plug-In . SVG Version: 6.00 Build 0)  -->
<svg version="1.1" id="Capa_2_00000013169430428336804510000012177092447762448786_"
	 xmlns="http://www.w3.org/2000/svg" xmlns:xlink="http://www.w3.org/1999/xlink" x="0px" y="0px" viewBox="0 0 307.7 367.7"
	 style="enable-background:new 0 0 307.7 367.7;" xml:space="preserve">
<style type="text/css">
	.st0{fill:#667764;}
</style>
<g id="Capa_1-2">
	<path class="st0" d="M225.8,37.4c0.4,0.5,0.8,0.9,1.2,1.4C226.7,38.3,226.2,37.9,225.8,37.4z"/>
	<path class="st0" d="M304.6,327.3c-2.1,0.2-5,0.6-8.6,1.3c-1.8,0.3-3.8,0.6-5.9,0.9c-2.1,0.4-4.4,0.6-6.7,1
		c-4.7,0.7-9.8,1.2-15,1.6c-1.3,0.1-2.6,0.1-3.9,0.2c-1.3,0.1-2.6,0.2-4,0.2c-2.6,0-5.3,0.2-7.9,0.1c-5.2,0-10.2-0.3-14.9-0.7
		c-4.6-0.5-8.9-1-12.5-1.6c-1.8-0.3-3.1-0.6-4.1-1c-1-0.3-1.6-0.6-1.9-0.8c-0.6-0.5-0.1-0.8,0.8-1.1c0.9-0.3,2.3-0.5,3.5-0.8
		c1.2-0.3,2.1-0.7,2.1-1.1c-7-0.4-12.1-1.8-17-3.3c-4.9-1.6-9.6-3.5-15.6-6c0-0.1-0.5-0.4-1.4-1c-1-0.5-2.3-1.4-4-2.4
		c-2.8-1.8-6.5-4.4-10.1-7.6c1.1-0.1,2.3-0.3,3.4-0.5c4.6-0.7,9.3-1.5,14.1-2.6c9.5-2.1,19.3-5.1,29.2-10.2
		c4.9-2.5,9.9-5.7,14.5-9.5c4.6-3.9,9-8.5,12.5-13.8c3.6-5.2,6.4-11,8.3-16.8c0.5-1.4,0.9-2.9,1.3-4.3c0.4-1.4,0.7-2.9,1-4.3
		c0.3-1.4,0.5-2.8,0.8-4.3c0.1-0.7,0.2-1.4,0.3-2.1l0.1-1.3l0.1-1.5c0.1-1.8,0.2-3.5,0.1-5.3c-0.1-3.9-0.7-8.7-2.3-13.8
		c-0.2-0.6-0.4-1.3-0.7-1.9c-0.2-0.6-0.5-1.3-0.7-1.9c-0.5-1.3-1.1-2.5-1.7-3.8c-1.2-2.5-2.7-5-4.3-7.2c-3.2-4.6-7.2-8.6-11-11.6
		s-7.4-5.2-10.3-6.7c-5.8-2.9-11.7-4.8-17.3-6.1c-5.7-1.3-11.2-2.1-16.6-2.5l-2-0.1l-2.5-0.1c-1.7,0-3.4-0.1-5.1,0.1
		c-1.7,0.1-3.4,0.2-5.1,0.4c-1.7,0.2-3.4,0.5-5.1,0.7c-6.7,1.3-13.2,3.5-19.3,6.4c-12.2,5.9-22.6,14.8-30.4,25.2
		c-3.9,5.2-7.2,10.8-10,16.6c-2.7,5.8-4.8,12-6.3,18.2c-0.5,1.9-0.8,3.8-1.2,5.7c-3.2-1.5-6.5-3-9.7-4.7c-3.8-1.9-7.5-4-11.1-6.1
		c-3.6-2.1-7.2-4.4-10.4-6.7c-1.6-1.1-3.2-2.3-4.4-3.3c-0.7-0.6-1.4-1-2-1.6l-1.9-1.7c-0.3-0.3-0.7-0.6-1-0.9l-0.9-0.9l-1.9-1.9
		l-1.8-2l-0.9-1c-0.3-0.3-0.6-0.7-0.8-1.1l-1.7-2.1c-0.6-0.7-1-1.5-1.6-2.2l-0.8-1.1l-0.4-0.6l-0.4-0.6l-1.5-2.3
		c-0.5-0.8-1-1.6-1.4-2.4l-1.4-2.4l-1.2-2.5c-0.4-0.8-0.9-1.7-1.2-2.6c-3.1-6.9-5.5-14.2-7.2-21.6c-0.3-1.7-0.7-3.3-1.1-4.8
		c-0.3-1.5-0.7-2.7-1-3.5c-0.7-1.6-1.3-1.6-1.4,1.9c-1-6.9-1.3-13.9-1.1-20.9c0.1-3.5,0.2-5.6,0.1-7.2c0-0.8-0.1-1.4-0.1-1.9
		c0-0.5-0.1-1-0.2-1.4c-0.1-0.9-0.2-1.8-0.2-3.3c0-0.8,0.1-1.7,0.3-2.9c0.1-0.6,0.2-1.2,0.2-1.9c0.1-0.7,0.3-1.5,0.5-2.3
		c2.5-13.8,7.5-27,14.9-38.3c3.8-5.7,8.3-11.2,13.2-16.2c5-5,10.4-9.7,16.3-13.8c11.7-8.3,25-14.8,38.9-19.3c6.9-2.2,14-3.9,21.1-5
		c7.1-1.1,14.2-1.6,21.1-1.4c6.8,0.3,13.4,1.2,19.1,3l1.1,0.3l0.9,0.4l0.9,0.4c0.3,0.1,0.6,0.2,0.9,0.4c0.6,0.3,1.3,0.6,1.9,0.9
		c0.6,0.3,1.3,0.7,1.9,1l1,0.5l0.9,0.6l1.9,1.2c1.2,0.9,2.5,1.7,3.7,2.8c2.5,1.9,4.8,4.2,7,6.5l1.6,1.8l0.8,0.9l0.8,1l1.5,1.9
		c0.5,0.7,1,1.3,1.4,2c1,1.3,1.9,2.7,2.8,4.1c0.5,0.7,0.9,1.4,1.3,2.1l1.2,2.1c1.5,2.9,3,5.9,4.1,9c2.4,6.1,4,12.5,4.7,18.9
		c0.7,6.4,0.5,12.9-0.5,19.3c-2,12.8-7.6,25.1-15.9,36.4c4.3-5.5,7.8-10.9,10.6-16.4c2.8-5.4,4.9-10.9,6.2-16.6
		c1.3-5.6,2-11.4,1.9-17.4c-0.2-6-1.1-12.2-3.1-18.6c0.3-0.1,0.7-0.2,0.8-1.1c0.1-0.5,0-1.1-0.2-2.1c-0.1-0.5-0.2-1-0.4-1.7
		c-0.2-0.6-0.5-1.3-0.8-2.1c-3.6-9.7-9.4-19.1-16.7-26.7c-3.6-3.8-7.6-7.1-11.7-9.8c-1-0.6-2-1.3-3.1-1.9c-1-0.6-2.1-1.2-3.1-1.6
		c-0.5-0.2-1-0.5-1.5-0.7c-0.5-0.2-1-0.4-1.5-0.6c-0.5-0.2-1-0.4-1.5-0.6c-0.6-0.2-1.1-0.3-1.6-0.5c-4.4-1.3-9.1-2.2-13.7-2.6
		c-4.6-0.5-9.1-0.6-13.4-0.5c-8.5,0.1-16,1-21.6,1.6c-0.9,0.1-1.9,0.2-2.9,0.3c-1,0.1-2,0.3-3,0.4s-2.2,0.3-3.4,0.5
		c-1.2,0.2-2.5,0.4-3.9,0.7c-5.6,1.2-13.1,3.2-23.4,8.2c6.9-3.4,14-6.2,21.3-8.6c-0.2-0.6-0.5-1.7-0.5-1.7
		c-7.4,2.2-15.2,5.1-22.9,8.8c-7.7,3.7-15.2,8.1-22.3,13.2c-7.1,5-13.7,10.8-19.5,16.9c-0.7,0.8-1.4,1.5-2.2,2.3
		c-0.7,0.8-1.4,1.6-2,2.4c-0.7,0.8-1.4,1.6-2,2.4c-0.6,0.8-1.3,1.6-1.9,2.4c-1.3,1.6-2.4,3.2-3.5,4.8c-0.3,0.4-0.6,0.8-0.8,1.2
		c-0.3,0.4-0.5,0.8-0.8,1.2c-0.5,0.8-1,1.6-1.5,2.4c0,0-1-0.6-1.5-0.9c-0.7,1.1-1.3,2.3-1.9,3.4c-0.6,1.2-1.2,2.3-1.8,3.5
		c-1.1,2.4-2.2,4.7-3.2,7.1c-1.2,1.6-1.8,1.8-1.8,0.8c0-0.5,0.1-1.3,0.4-2.4c0.1-0.5,0.3-1.2,0.5-1.8c0.2-0.7,0.5-1.4,0.8-2.2
		c0.6-1.6,1.2-3.3,2.2-5.3c0.5-1,0.9-2,1.4-3c0.5-1.1,1.1-2.1,1.7-3.2c1.2-2.3,2.7-4.5,4.2-6.9c1.7-2.3,3.4-4.9,5.4-7.3
		c3.9-4.9,8.5-9.9,13.6-14.6c5.1-4.7,10.7-9,16.4-12.9c5.7-3.9,11.6-7.3,17.2-10.1c5.6-2.8,11-5.1,15.7-7c-0.2-0.6-0.6-1.7-0.8-2.2
		c-5.1,2-10.2,4.1-15.2,6.5L96.1,28c5.6-2.8,11.2-5.1,16.9-7.2c1.4-0.5,2.8-1,4.2-1.5c1.4-0.5,2.8-0.9,4.2-1.4
		c2.8-0.8,5.7-1.6,8.5-2.3c11.3-2.8,22.8-4.3,34.2-4.4c5.7,0,11.5,0.3,17.2,1.2c5.7,0.9,11.4,2.3,16.9,4.6c0.9,0.4,1.8,0.8,2.6,1.2
		c0.1-0.3,0.2-0.5-0.6-1.2c-0.8-0.6-2.5-1.6-5.9-2.7c3.8,1.3,7.6,2.9,11.2,5c3.9,2.2,7.7,4.8,11.2,7.8c3.6,3,7,6.2,10.1,9.8
		c1.6,1.7,3,3.6,4.5,5.5l2.1,2.9c0.3,0.5,0.7,1,1,1.5l1,1.5c10.5,15.8,16.2,34.6,16.9,51.6c0.2,2.1,0.4,3.2,0.7,3.2
		c0.3,0,0.6-1.1,0.8-3.2c0.3-2.2,0.4-5.4,0.2-9.8c-0.2-2.2-0.3-4.6-0.8-7.3c-0.4-2.7-1.1-5.6-1.9-8.8c-1.9-6.3-4.2-11.9-6.7-17
		c-2.5-5.2-5.4-9.8-8.6-14.2c-1.6-2.2-3.3-4.3-5.1-6.5c-0.9-1-1.9-2.1-2.8-3.1c-0.5-0.5-1-1-1.5-1.5c-0.5-0.5-1-1-1.5-1.5
		c-4.1-4-8.8-8-14.4-11.6l0.6-1c1.9,1.2,3.8,2.6,5.9,4.1c1.9,1.6,4,3.2,5.9,5c3.9,3.6,7.7,7.7,11,12.1c6.8,8.7,12.1,18.5,15.5,26.7
		c0.9,2,1.1,2,0.9,0.8c-0.2-1.1-0.8-3.3-1.5-5.4c-0.4-1.1-0.7-2.1-1-3.1c-0.3-0.9-0.6-1.7-0.8-2.3c-0.3-1.1-0.2-1.2,1,0.8
		c0.5,1,1,2,1.4,3.1l1.4,3.1l1.2,3.2c0.4,1.1,0.9,2.1,1.2,3.2c0.7,2.2,1.5,4.3,2.1,6.5l1,3.3c0.3,1.1,0.6,2.2,0.9,3.3
		c-1.3-6.7-3.5-13.9-6.6-20.9c-3.1-7-7-14-11.7-20.4c-4.7-6.4-10.1-12.4-15.9-17.5c-5.8-5.1-12.2-9.4-18.6-12.6
		c-1.1-0.6-2.1-1.2-3.2-1.7c-1.1-0.5-2.2-1-3.2-1.5c-0.3-0.1-0.5-0.2-0.8-0.4c-0.2-0.1-0.5-0.2-0.8-0.3c-0.5-0.2-1-0.4-1.5-0.6
		c-0.9-0.4-1.9-0.8-2.7-1.1c-1.7-0.6-3.1-1.2-4-1.6c-1-0.4-1.5-0.8-1.4-1.1c-5.8-1.1-11.4-1.7-16.9-1.9c-5.4-0.2-10.7-0.2-15.7,0.2
		c-10.1,0.6-19.5,2-28.2,3.8C108.8,7.8,93.9,13,81.2,18.3c-1.1,0.4-2.6,1.2-4.5,2.2c-0.9,0.5-2,1.1-3.1,1.8
		c-1.1,0.7-2.4,1.4-3.6,2.2c-5.1,3.2-11.2,7.6-17.3,12.8c-6,5.1-12,11.1-17.3,17.4c-2.5,2.8-4.8,5.7-7.1,8.7c-0.8,1-1.5,2-2.2,3.1
		l-2.2,3.1c-1.4,2.1-2.7,4.3-4,6.4c-5.1,8.7-9.1,18-12.2,27.5c-6.1,19.1-8.5,39.2-7.3,59.2c1.3,20,6.1,39.9,15.2,58.4
		c4.6,9.2,10.3,18.1,17.1,26.2c3.4,4.1,7.2,7.9,11.1,11.5c1,0.9,2,1.7,3.1,2.6c1,0.8,2.1,1.8,3.1,2.5c2,1.6,4.1,3.1,6.1,4.5
		c8.1,5.6,16.3,10.5,24.7,15c8.4,4.5,17.1,8.5,26.1,12c3.2,1.3,6.5,2.4,9.9,3.5c0.2,0.7,0.5,1.3,0.8,2c0.6,1.4,1.1,2.8,1.7,4.2
		c0.6,1.4,1.3,2.7,1.9,4l1,2c0.3,0.7,0.7,1.4,1.1,2c0.8,1.4,1.5,2.7,2.3,4c0.8,1.3,1.7,2.6,2.5,3.9c0.9,1.3,1.8,2.5,2.6,3.7
		c0.9,1.2,1.8,2.4,2.8,3.5c1.9,2.4,3.9,4.5,5.9,6.6c1,1,2.1,2,3.1,3c0.5,0.5,1,1,1.6,1.5l1.6,1.4c8.6,7.5,18,13.2,27.4,17.6
		c1.2,0.6,2.4,1,3.5,1.5c1.2,0.5,2.3,1,3.5,1.4c2.3,0.8,4.6,1.6,6.9,2.3c4.5,1.3,8.9,2.3,13,2.9c8.3,1.3,15.6,1.5,21.7,1.2
		c6-0.2,10.8-1,14-1.5c1.6-0.3,2.9-0.5,3.7-0.7c0.8-0.2,1.3-0.3,1.3-0.3c4.6-0.6,9.1-1.9,11.3-2.9c1.1-0.6,1.6-1.1,1.3-1.4
		s-1.5-0.6-3.7-0.8c-2.2,0.1-4.9,0.2-7.9,0.1c-1.5,0-3,0-4.6,0c-1.6-0.1-3.2-0.1-4.9-0.2c-6.8-0.4-14.1-1.3-20.7-2.6
		c-6.7-1.3-12.7-3.3-16.9-5c-4.2-1.7-6.7-3.2-6.5-3.8c0.1-0.1,0.6,0,1.6,0.2c0.9,0.3,2.3,0.7,3.9,1.2c0.8,0.2,1.7,0.5,2.6,0.8
		s1.9,0.5,2.9,0.8c1,0.3,2.1,0.6,3.1,0.9c1.1,0.2,2.2,0.5,3.2,0.8c0.1-0.3,0.6-0.5,1.4-0.7c0.8-0.2,1.9-0.3,3.3-0.5
		c1.4-0.1,2.9-0.2,4.6-0.4c1.7-0.1,3.6-0.3,5.5-0.4c1.9-0.2,3.9-0.3,5.8-0.5c1.9-0.2,3.8-0.4,5.6-0.5c1.8-0.2,3.5-0.4,5-0.5
		c1.5-0.1,2.8-0.2,3.9-0.2c1.1-0.2,2.8-0.4,4.9-0.7c1.1-0.2,2.3-0.4,3.6-0.6c0.6-0.1,1.3-0.2,2-0.3c0.7-0.1,1.4-0.3,2.2-0.4
		c5.9-1,13-2.7,20-4.8c13.9-4,26.9-10.3,30.5-12.3C309.1,327.7,308.7,326.9,304.6,327.3L304.6,327.3z M24,70.1L24,70.1
		c-0.3,0.6-0.7,1.1-1,1.7l0.1-0.2C23.3,71.1,23.6,70.6,24,70.1L24,70.1z M159.8,252.1c0.3-1.4,0.6-2.4,0.8-3.2
		c0.1-0.4,0.1-0.7,0.2-1c0.1-0.3,0.1-0.5,0.1-0.7c0-0.8-0.2-0.9-0.5-0.9c0.4,0.1,0.7,0.3,1.1,0.4c0.4-2.9,2.2-6.9,4.6-10.3
		c2.4-3.5,5.3-6.3,7.2-8.2c0.3,0.3,0.5,0.6,0.8,0.9c1.8-1.9,3.8-3.4,5.9-4.7c2.1-1.2,4.4-2,6.6-2.6c0.6-0.1,1.1-0.3,1.7-0.4
		c0.6-0.1,1.1-0.1,1.7-0.2c1.1,0,2.3-0.2,3.4-0.1h0.9c0.3,0,0.8,0,1.2,0.1c0.8,0.1,1.6,0.1,2.4,0.1c0.8,0.1,1.6,0.1,2.4,0.2l2.3,0.2
		c-0.1,0.4-0.1,0.8-0.2,1.2c2.9,0.5,5.5,1.1,7.1,1.8c1.7,0.6,2.4,1.2,2.3,1.5c-0.2,0.4-0.3,0.7-0.5,1.1c0.8,0.5,1.6,1.1,2.3,1.5
		c0.7,0.5,1.1,0.9,1.5,1.2s0.5,0.6,0.5,0.8c0,0.1,0,0.2,0,0.3c-0.1,0.1-0.1,0.2-0.3,0.2c0.4-0.1,0.7-0.3,1.1-0.4
		c0.1,0.3,0.2,0.7,0.1,1c0,0,0,0,0,0.1l-0.1,0.8c-0.1,0.5-0.2,1-0.2,1.5c-0.1,0.5-0.2,0.9-0.3,1.4c-0.1,0.4-0.2,0.9-0.3,1.3
		c-0.1,0.4-0.2,0.8-0.4,1.2c-0.1,0.4-0.3,0.7-0.4,1.1c-0.3,0.7-0.6,1.4-0.9,2c-0.7,1.2-1.4,2.3-2.3,3.3c-0.9,1-1.9,2-3.1,2.9
		c-4.7,3.7-12.2,6.7-20.8,8.7c-6.5,1.5-14,2.6-21.8,3.4c-2.2,0.2-4.5,0.2-7.1,0.1C158.8,257.5,159.2,254.9,159.8,252.1L159.8,252.1z
		"/>
	<path class="st0" d="M202.4,19c0.5,0.3,1.1,0.6,1.6,0.9c0.6,0.3,1.1,0.6,1.7,1c0.6,0.3,1.2,0.7,1.8,1.1c1.2,0.8,2.5,1.5,3.7,2.5
		c0.6,0.5,1.3,0.9,1.9,1.4c0.6,0.5,1.2,1,1.9,1.5c4.2,3.4,8.1,7.2,10.8,10.2c-3.8-4.2-7.8-8-12.1-11.3c-4-3.1-8.3-5.7-12.8-7.9
		c0,0,0,0,0,0C201.4,18.5,201.9,18.7,202.4,19L202.4,19z"/>
</g>
</svg>
