<svg xmlns="http://www.w3.org/2000/svg" viewBox="0 0 628.7 196.4" width="100%">
	<g id="Capa_1-2">
		<path fill="currentColor" d="M76.1,141.8H10.6c1.2,16.4,13.7,27.2,30.8,27.2c9.5,0,18-3.4,24-10.3l6,6.9c-7,8.3-17.9,12.8-30.2,12.8
			C16.7,178.4,0,161.8,0,138.5s16.2-39.8,38.3-39.8s38,16.2,38,39.8C76.2,139.4,76.1,140.6,76.1,141.8L76.1,141.8z M10.6,133.9h55.5
			c-1.3-15.3-12.5-26.1-27.8-26.1S11.9,118.6,10.6,133.9L10.6,133.9z"/>
		<path fill="currentColor" d="M169.9,132.3v45.4h-10.6v-44.4c0-16.5-8.6-25-23.5-25c-16.8,0-27.4,10.4-27.4,28.3v41.1H97.8V99.4h10.1v14.4
			c5.7-9.5,16.2-15,29.8-15C156.8,98.8,169.9,109.8,169.9,132.3L169.9,132.3z"/>
		<path fill="currentColor" d="M188.9,125.6c0-31.3,24.6-54.2,57.9-54.2s57.9,22.9,57.9,54.2s-24.6,54.2-57.9,54.2S188.9,156.8,188.9,125.6z
			M275,125.6c0-18-12.4-29.8-28.1-29.8s-28.1,11.8-28.1,29.8s12.4,29.8,28.1,29.8S275,143.6,275,125.6z"/>
		<path fill="currentColor" d="M419.4,73.5v104.2h-24.3l-46-55.5v55.5h-28.9V73.5h24.3l46,55.5V73.5H419.4L419.4,73.5z"/>
		<path fill="currentColor" d="M585,20c0.2,0.2,0.4,0.5,0.7,0.7C585.4,20.5,585.2,20.2,585,20z"/>
		<path fill="currentColor" d="M627,174.8c-1.1,0.1-2.7,0.3-4.6,0.7c-1,0.2-2,0.3-3.1,0.5c-1.1,0.2-2.3,0.4-3.6,0.5c-2.5,0.4-5.2,0.6-8,0.9
			c-0.7,0.1-1.4,0.1-2.1,0.1c-0.7,0-1.4,0.1-2.1,0.1c-1.4,0-2.8,0.1-4.2,0.1c-2.8,0-5.5-0.2-8-0.4c-2.5-0.3-4.7-0.5-6.7-0.9
			c-1-0.2-1.7-0.3-2.2-0.5c-0.5-0.2-0.8-0.3-1-0.4c-0.3-0.2-0.1-0.4,0.5-0.6c0.5-0.2,1.2-0.2,1.8-0.4c0.6-0.2,1.1-0.4,1.1-0.6
			c-3.8-0.2-6.5-0.9-9.1-1.8c-2.6-0.9-5.1-1.9-8.3-3.2c0,0-0.3-0.2-0.8-0.5c-0.5-0.3-1.2-0.7-2.1-1.3c-1.5-1-3.5-2.3-5.4-4.1
			c0.6-0.1,1.2-0.2,1.8-0.3c2.5-0.4,5-0.8,7.5-1.4c5.1-1.1,10.3-2.7,15.6-5.4c2.6-1.4,5.3-3,7.8-5.1c2.5-2.1,4.8-4.6,6.7-7.4
			c1.9-2.8,3.4-5.9,4.4-8.9c0.2-0.8,0.5-1.5,0.7-2.3c0.2-0.8,0.4-1.5,0.5-2.3c0.2-0.8,0.3-1.5,0.4-2.3c0.1-0.4,0.1-0.8,0.2-1.1
			l0.1-0.7l0.1-0.8c0.1-1,0.1-1.9,0-2.8c0-2.1-0.4-4.7-1.2-7.4c-0.1-0.3-0.2-0.7-0.3-1c-0.1-0.3-0.2-0.7-0.4-1
			c-0.3-0.7-0.6-1.3-0.9-2c-0.7-1.3-1.4-2.7-2.3-3.9c-1.7-2.5-3.9-4.6-5.9-6.2c-2-1.6-4-2.8-5.5-3.6c-3.1-1.5-6.2-2.6-9.3-3.3
			c-3-0.7-6-1.1-8.9-1.3l-1.1-0.1l-1.3,0c-0.9,0-1.8-0.1-2.7,0c-0.9,0.1-1.8,0.1-2.7,0.2c-0.9,0.1-1.8,0.2-2.7,0.4
			c-3.6,0.7-7.1,1.8-10.3,3.4c-6.5,3.2-12,7.9-16.2,13.5c-2.1,2.8-3.9,5.8-5.3,8.9s-2.5,6.4-3.3,9.7c-0.2,1-0.5,2-0.6,3.1
			c-1.7-0.8-3.5-1.6-5.2-2.5c-2-1-4-2.1-6-3.3c-1.9-1.2-3.8-2.3-5.6-3.6c-0.9-0.6-1.7-1.2-2.4-1.8c-0.4-0.3-0.7-0.6-1.1-0.9l-1-0.9
			c-0.2-0.2-0.4-0.3-0.5-0.5l-0.5-0.5l-1-1l-0.9-1.1l-0.5-0.5c-0.2-0.2-0.3-0.4-0.5-0.6l-0.9-1.1c-0.3-0.4-0.6-0.8-0.9-1.2l-0.4-0.6
			l-0.2-0.3l-0.2-0.3l-0.8-1.2c-0.3-0.4-0.5-0.8-0.8-1.3l-0.7-1.3l-0.7-1.3c-0.2-0.4-0.5-0.9-0.6-1.4c-1.7-3.7-3-7.6-3.8-11.6
			c-0.2-0.9-0.4-1.8-0.6-2.6c-0.2-0.8-0.4-1.4-0.5-1.9c-0.4-0.9-0.7-0.8-0.8,1c-0.5-3.7-0.7-7.4-0.6-11.1c0-1.9,0.1-3,0.1-3.8
			c0-0.4,0-0.7-0.1-1s0-0.5-0.1-0.8c-0.1-0.5-0.1-1-0.1-1.8c0-0.4,0.1-0.9,0.1-1.5c0-0.3,0.1-0.7,0.1-1c0.1-0.4,0.2-0.8,0.2-1.2
			c1.3-7.4,4-14.4,8-20.5c2-3,4.4-6,7.1-8.7c2.6-2.7,5.6-5.2,8.7-7.4c6.3-4.5,13.4-7.9,20.8-10.3c3.7-1.2,7.5-2.1,11.3-2.7
			c3.8-0.6,7.6-0.8,11.2-0.7c3.6,0.1,7.2,0.6,10.2,1.6l0.6,0.2l0.5,0.2l0.5,0.2c0.2,0.1,0.3,0.1,0.5,0.2c0.3,0.2,0.7,0.3,1,0.5
			c0.3,0.2,0.7,0.4,1,0.5l0.5,0.3l0.5,0.3l1,0.6c0.7,0.5,1.3,0.9,2,1.5c1.3,1,2.5,2.2,3.7,3.5l0.9,1l0.4,0.5l0.4,0.5l0.8,1
			c0.3,0.4,0.5,0.7,0.8,1.1c0.5,0.7,1,1.4,1.5,2.2c0.2,0.4,0.5,0.8,0.7,1.1l0.7,1.1c0.8,1.6,1.6,3.1,2.2,4.8
			c1.3,3.3,2.1,6.7,2.5,10.1c0.4,3.4,0.3,6.9-0.3,10.3c-1.1,6.8-4.1,13.4-8.5,19.5c2.3-2.9,4.2-5.8,5.6-8.8s2.6-5.8,3.3-8.8
			c0.7-3,1.1-6.1,1-9.3s-0.6-6.5-1.7-9.9c0.2,0,0.4-0.1,0.4-0.6c0-0.2,0-0.6-0.1-1.1c0-0.2-0.1-0.5-0.2-0.9c-0.1-0.3-0.2-0.7-0.4-1.1
			c-1.9-5.2-5-10.2-8.9-14.3c-1.9-2-4.1-3.8-6.2-5.2c-0.5-0.3-1.1-0.7-1.6-1c-0.5-0.3-1.1-0.6-1.6-0.9c-0.3-0.1-0.5-0.3-0.8-0.4
			c-0.3-0.1-0.5-0.2-0.8-0.3c-0.3-0.1-0.5-0.2-0.8-0.3c-0.3-0.1-0.6-0.2-0.9-0.3c-2.3-0.7-4.8-1.2-7.3-1.4c-2.5-0.2-4.9-0.3-7.1-0.3
			c-4.5,0.1-8.5,0.5-11.5,0.8c-0.5,0.1-1,0.1-1.5,0.2c-0.5,0.1-1,0.1-1.6,0.2s-1.2,0.1-1.8,0.3s-1.3,0.2-2.1,0.4
			c-3,0.6-7,1.7-12.5,4.4c3.7-1.8,7.5-3.3,11.4-4.6c-0.1-0.3-0.3-0.9-0.3-0.9c-4,1.2-8.1,2.7-12.2,4.7c-4.1,2-8.1,4.3-11.9,7
			c-3.8,2.7-7.3,5.8-10.4,9c-0.4,0.4-0.8,0.8-1.1,1.2c-0.4,0.4-0.7,0.8-1.1,1.3c-0.4,0.4-0.7,0.8-1.1,1.3c-0.3,0.4-0.7,0.9-1,1.3
			c-0.7,0.8-1.3,1.7-1.9,2.6c-0.1,0.2-0.3,0.4-0.5,0.6c-0.1,0.2-0.3,0.4-0.4,0.7c-0.3,0.4-0.5,0.9-0.8,1.3c0,0-0.5-0.3-0.8-0.5
			c-0.4,0.6-0.7,1.2-1,1.8c-0.3,0.6-0.7,1.2-1,1.8c-0.6,1.3-1.2,2.5-1.7,3.8c-0.6,0.9-1,1-1,0.4c0-0.3,0.1-0.7,0.2-1.3
			c0.1-0.3,0.2-0.6,0.3-1c0.1-0.3,0.3-0.7,0.4-1.2c0.3-0.8,0.7-1.8,1.2-2.8c0.2-0.5,0.5-1.1,0.8-1.6c0.3-0.6,0.6-1.1,0.9-1.7
			c0.6-1.2,1.4-2.4,2.2-3.7c0.9-1.2,1.8-2.6,2.9-3.9c2.1-2.6,4.5-5.3,7.3-7.8c2.7-2.5,5.7-4.8,8.8-6.9s6.2-3.9,9.2-5.4
			c3-1.5,5.9-2.8,8.4-3.8c-0.1-0.3-0.3-0.9-0.5-1.2c-2.7,1.1-5.5,2.2-8.1,3.5l-0.3-0.6c3-1.5,6-2.7,9-3.8c0.8-0.3,1.5-0.6,2.3-0.8
			c0.8-0.2,1.5-0.5,2.3-0.7c1.5-0.4,3-0.9,4.5-1.2c6.1-1.5,12.2-2.3,18.3-2.4c3.1,0,6.1,0.2,9.2,0.7c3,0.5,6.1,1.2,9,2.4
			c0.5,0.2,0.9,0.4,1.4,0.6c0.1-0.1,0.1-0.3-0.3-0.6c-0.4-0.3-1.3-0.8-3.2-1.5c2,0.7,4.1,1.5,6,2.7c2.1,1.2,4.1,2.6,6,4.2
			c1.9,1.6,3.7,3.3,5.4,5.2c0.9,0.9,1.6,1.9,2.4,2.9l1.1,1.5c0.2,0.3,0.4,0.5,0.5,0.8l0.5,0.8c5.6,8.5,8.6,18.5,9,27.6
			c0.1,1.1,0.2,1.7,0.4,1.7c0.2,0,0.3-0.6,0.4-1.7c0.2-1.2,0.2-2.9,0.1-5.2c-0.1-1.2-0.2-2.5-0.4-3.9c-0.2-1.5-0.6-3-1-4.7
			c-1-3.4-2.2-6.3-3.6-9.1c-1.3-2.8-2.9-5.2-4.6-7.6c-0.8-1.2-1.8-2.3-2.7-3.5c-0.5-0.5-1-1.1-1.5-1.7c-0.2-0.3-0.5-0.5-0.8-0.8
			s-0.5-0.5-0.8-0.8c-2.2-2.2-4.7-4.3-7.7-6.2l0.3-0.5c1,0.6,2,1.4,3.1,2.2c1,0.8,2.1,1.7,3.1,2.7c2.1,1.9,4.1,4.1,5.9,6.4
			c3.6,4.7,6.4,9.9,8.3,14.2c0.5,1.1,0.6,1,0.5,0.5c-0.1-0.6-0.4-1.8-0.8-2.9c-0.2-0.6-0.4-1.1-0.5-1.6c-0.2-0.5-0.3-0.9-0.4-1.2
			c-0.2-0.6-0.1-0.6,0.5,0.4c0.3,0.5,0.5,1.1,0.8,1.6l0.7,1.7l0.7,1.7c0.2,0.6,0.5,1.1,0.6,1.7c0.4,1.2,0.8,2.3,1.2,3.5l0.5,1.8
			c0.2,0.6,0.3,1.2,0.5,1.8c-0.7-3.6-1.9-7.4-3.5-11.2s-3.8-7.5-6.3-10.9s-5.4-6.6-8.5-9.3c-3.1-2.7-6.5-5-9.9-6.7
			c-0.6-0.3-1.1-0.6-1.7-0.9c-0.6-0.3-1.2-0.5-1.7-0.8c-0.1-0.1-0.3-0.1-0.4-0.2c-0.1,0-0.3-0.1-0.4-0.2c-0.3-0.1-0.5-0.2-0.8-0.3
			c-0.5-0.2-1-0.4-1.4-0.6c-0.9-0.3-1.6-0.6-2.2-0.9c-0.5-0.2-0.8-0.4-0.8-0.6c-3.1-0.6-6.1-0.9-9-1s-5.7-0.1-8.4,0.1
			c-5.4,0.3-10.4,1.1-15.1,2c-9.3,1.9-17.3,4.7-24.1,7.6c-0.6,0.2-1.4,0.6-2.4,1.1c-0.5,0.3-1.1,0.6-1.7,0.9
			c-0.6,0.4-1.3,0.7-1.9,1.2c-2.7,1.7-6,4-9.3,6.8c-3.2,2.7-6.4,5.9-9.2,9.3c-1.3,1.5-2.6,3-3.8,4.6c-0.4,0.5-0.8,1.1-1.2,1.6
			l-1.2,1.7c-0.7,1.1-1.4,2.3-2.1,3.4c-2.7,4.7-4.9,9.6-6.5,14.7c-3.3,10.2-4.6,20.9-3.9,31.6c0.7,10.7,3.3,21.3,8.1,31.2
			c2.4,4.9,5.5,9.7,9.1,14c1.8,2.2,3.8,4.2,5.9,6.1c0.5,0.5,1.1,0.9,1.6,1.4c0.5,0.4,1.1,0.9,1.7,1.4c1.1,0.8,2.2,1.6,3.3,2.4
			c4.3,3,8.7,5.6,13.2,8c4.5,2.4,9.1,4.5,13.9,6.4c1.7,0.7,3.5,1.3,5.3,1.9c0.1,0.4,0.3,0.7,0.4,1.1c0.3,0.7,0.6,1.5,0.9,2.2
			c0.3,0.7,0.7,1.4,1,2.1l0.5,1.1c0.2,0.4,0.4,0.7,0.6,1.1c0.4,0.7,0.8,1.5,1.2,2.1c0.4,0.7,0.9,1.4,1.3,2.1c0.5,0.7,0.9,1.3,1.4,2
			c0.5,0.7,1,1.3,1.5,1.9c1,1.3,2.1,2.4,3.2,3.5c0.5,0.6,1.1,1.1,1.7,1.6c0.3,0.3,0.5,0.5,0.8,0.8l0.9,0.8c4.6,4,9.6,7.1,14.6,9.4
			c0.6,0.3,1.2,0.6,1.9,0.8c0.6,0.3,1.2,0.5,1.9,0.8c1.2,0.4,2.5,0.9,3.7,1.2c2.4,0.7,4.8,1.2,7,1.6c4.4,0.7,8.4,0.8,11.6,0.6
			c3.2-0.1,5.8-0.5,7.5-0.8c0.9-0.1,1.5-0.3,2-0.4s0.7-0.2,0.7-0.2c2.5-0.3,4.9-1,6-1.6c0.6-0.3,0.9-0.6,0.7-0.8s-0.8-0.3-2-0.4
			c-1.2,0-2.6,0.1-4.2,0.1c-0.8,0-1.6,0-2.5,0c-0.8,0-1.7-0.1-2.6-0.1c-3.6-0.2-7.5-0.7-11.1-1.4c-3.6-0.7-6.8-1.7-9-2.6
			c-2.3-0.9-3.6-1.7-3.5-2c0-0.1,0.3,0,0.8,0.1c0.5,0.1,1.2,0.4,2.1,0.6c0.4,0.1,0.9,0.3,1.4,0.4c0.5,0.1,1,0.3,1.6,0.4
			c0.5,0.1,1.1,0.3,1.7,0.5c0.6,0.1,1.2,0.3,1.7,0.4c0-0.2,0.3-0.3,0.7-0.4c0.4-0.1,1-0.2,1.8-0.3s1.6-0.1,2.5-0.2
			c0.9-0.1,1.9-0.1,2.9-0.2c1-0.1,2.1-0.2,3.1-0.2c1-0.1,2-0.2,3-0.3c1-0.1,1.9-0.2,2.7-0.2c0.8-0.1,1.5-0.1,2.1-0.1
			c0.6-0.1,1.5-0.2,2.6-0.4c0.6-0.1,1.2-0.2,1.9-0.3c0.3-0.1,0.7-0.1,1.1-0.2c0.4-0.1,0.8-0.1,1.2-0.2c3.2-0.6,7-1.5,10.7-2.6
			c7.5-2.2,14.4-5.5,16.3-6.6C629.4,175,629.3,174.5,627,174.8L627,174.8z M477.1,37.5L477.1,37.5c-0.2,0.3-0.4,0.6-0.6,0.9l0.1-0.1
			C476.8,38,477,37.7,477.1,37.5L477.1,37.5z M549.7,134.6c0.2-0.8,0.3-1.3,0.4-1.7c0-0.2,0.1-0.4,0.1-0.5c0-0.1,0-0.3,0-0.4
			c0-0.4-0.1-0.5-0.3-0.5c0.2,0.1,0.4,0.1,0.6,0.2c0.2-1.5,1.2-3.7,2.5-5.5c1.3-1.8,2.8-3.4,3.8-4.4c0.1,0.2,0.3,0.3,0.4,0.5
			c0.9-1,2-1.8,3.2-2.5c1.1-0.6,2.3-1.1,3.5-1.4c0.3-0.1,0.6-0.2,0.9-0.2c0.3,0,0.6-0.1,0.9-0.1c0.6,0,1.2-0.1,1.8-0.1h0.5
			c0.2,0,0.4,0,0.6,0c0.4,0,0.9,0,1.3,0.1c0.4,0,0.8,0.1,1.3,0.1l1.2,0.1c0,0.2-0.1,0.4-0.1,0.6c1.5,0.2,2.9,0.6,3.8,1
			c0.9,0.3,1.3,0.7,1.2,0.8c-0.1,0.2-0.2,0.4-0.3,0.6c0.4,0.3,0.9,0.6,1.2,0.8s0.6,0.5,0.8,0.6c0.2,0.2,0.3,0.3,0.3,0.4
			c0,0.1,0,0.1,0,0.2c0,0.1-0.1,0.1-0.2,0.1c0.2-0.1,0.4-0.2,0.6-0.2c0.1,0.2,0.1,0.4,0.1,0.5c0,0,0,0,0,0.1l0,0.4
			c0,0.3-0.1,0.5-0.1,0.8c0,0.3-0.1,0.5-0.2,0.7c0,0.2-0.1,0.5-0.2,0.7s-0.1,0.4-0.2,0.6s-0.2,0.4-0.2,0.6c-0.2,0.4-0.3,0.7-0.5,1.1
			c-0.4,0.7-0.8,1.2-1.2,1.8c-0.5,0.5-1,1.1-1.7,1.6c-2.5,2-6.5,3.6-11.1,4.7c-3.5,0.8-7.5,1.4-11.6,1.8c-1.2,0.1-2.4,0.1-3.8,0.1
			C549.2,137.5,549.4,136.1,549.7,134.6L549.7,134.6z"/>
		<path fill="currentColor" d="M572.4,10.1c0.3,0.1,0.6,0.3,0.9,0.5s0.6,0.3,0.9,0.5c0.3,0.2,0.6,0.4,1,0.6c0.7,0.4,1.3,0.8,2,1.3
			c0.3,0.2,0.7,0.5,1,0.7c0.3,0.2,0.7,0.5,1,0.8c2.3,1.8,4.3,3.8,5.8,5.5c-2-2.2-4.2-4.3-6.5-6c-2.2-1.6-4.4-3.1-6.8-4.2c0,0,0,0,0,0
			C571.9,9.9,572.2,10,572.4,10.1L572.4,10.1z"/>
	</g>
</svg>
