<?xml version="1.0" encoding="UTF-8"?>
<svg xmlns="http://www.w3.org/2000/svg" xmlns:xodm="http://www.corel.com/coreldraw/odm/2003" version="1.1" viewBox="0 0 604.1 461.7">
  <defs>
    <style>
      .cls-1 {
        fill: #a8518a;
      }

      .cls-1, .cls-2, .cls-3 {
        fill-rule: evenodd;
      }

      .cls-2 {
        fill: #017680;
      }

      .cls-4 {
        fill: #006;
      }

      .cls-3 {
        fill: #ef8819;
      }
    </style>
  </defs>
  <!-- Generator: Adobe Illustrator 28.7.1, SVG Export Plug-In . SVG Version: 1.2.0 Build 142)  -->
  <g>
    <g id="Capa_1">
      <g id="Layer_x5F_1">
        <g id="_105553200404800">
          <path class="cls-2" d="M392.4,47.1c.9-5.5-2.5-9.4-5.8-11-2.1-1-4.7-1.4-7.3-.8-2.7.7-3.8,1.6-5.3,3.2-1.4,1.4-4.7,5.9-7.9,9.3-14.4,14.7-35.1,25-59.6,25.9-26.7.9-54.4-12.8-69.7-33.2-1.4-1.9-2.2-3.1-4.5-4.2-6.3-3.2-14.1.4-15.3,7.7-.9,5.7,2.7,9.1,5,12,1,1.3,5,5.9,6.1,6.8,1,.8,1.2,1.3,2.1,2.2.9.9,1.5,1.3,2.4,2.1l4.5,3.9c1,.8,1.4,1.2,2.4,1.9,3.2,2.4,6.4,4.8,10.1,6.9,33.9,19.6,73.5,20.7,107.9,1.3,6.7-3.8,9.7-6.2,15.4-10.6,3.6-2.8,7.9-7,11-10.5,2.9-3.3,7.8-7.8,8.6-12.7h0Z"/>
          <path class="cls-3" d="M417.8,97c.8-5.2-2.5-9.3-5.6-10.9-4.1-2.1-9.7-.8-14.2.2-13.7,2.9-24.9,7.3-36.1,14.4-9.3,5.8-15.6,11.5-22.9,19.1l-3.7,4.4c-20.5,24.9-31.3,65.8-16.9,104.3,1.8,4.8,2.9,8.1,6.8,10.1,8.6,4.4,19.2-3.8,14.1-14.7-9.4-20.5-7.7-49.8,1.8-69.1,3-6.1,8.6-15.7,13.4-20.5,1.5-1.6,2.7-3,4.1-4.3.8-.8,1.4-1.2,2.2-2,.9-1,1.4-1.1,2.3-2,8.7-7.8,21.1-14.1,32.7-17.5,9.4-2.7,20.4-.8,22.1-11.6h0Z"/>
          <path class="cls-1" d="M186.2,93.3c.8,11,13.7,9.9,21.4,12,8.8,2.4,16.5,5.9,23.3,10.2,5.6,3.6,11.9,8.5,16.4,13.2,23,24.5,30.5,58.9,17.6,91.8-1.9,4.9-2.2,8.7,1.1,12.5,2.5,2.9,7.1,5,12.3,2.8,4.1-1.7,5.4-5.1,7.1-9.6,6.7-17.9,9.1-38.2,5-58.5-3.9-19.5-11.5-33.6-21.1-46l-8-8.9c-.8-.7-1.3-1.5-2.1-2.2-8.2-7.4-16.4-13.8-27.2-18.8-7-3.3-31.5-12.9-39.7-9.1-3.3,1.5-6.4,5.3-6.1,10.5h0Z"/>
          <path class="cls-2" d="M328.2.4c-7.2,1.7-13.4,8.6-11.5,17.8,1.5,7,8.7,13.7,18,11.5,7-1.7,13.2-8.5,11.4-17.5-1.7-8.4-10.1-13.6-17.8-11.8Z"/>
          <path class="cls-3" d="M423.2,157.1c1.5-8.9-5.1-16.1-12.5-17.2-8.9-1.4-15.7,5-17,12.3-1.6,9,5,16.3,12.5,17.3,9,1.3,15.8-4.9,17.1-12.4h0Z"/>
          <path class="cls-2" d="M274.9.4c-7.1,1.7-13.3,8.5-11.5,17.6,1.4,7.1,8.7,13.7,17.9,11.7,6.9-1.5,13.4-8.6,11.5-17.6-1.8-8.6-10.2-13.4-17.9-11.6h0Z"/>
          <path class="cls-1" d="M207.4,199.4c.9,7.8,7.6,13.9,16.5,13.2,7.6-.6,14.2-8,13.3-16.6-.8-7.6-7.8-14.3-16.6-13.2-7.7,1-14.2,7.7-13.2,16.6h0Z"/>
          <path class="cls-1" d="M210.5,153.7c1.4-8.8-5.3-15.7-12.6-16.9-9-1.4-16,5.3-17.1,12.7-1.3,8.9,5.2,15.8,12.7,17,8.9,1.4,15.7-5.3,16.9-12.8Z"/>
          <path class="cls-3" d="M396.6,202.7c1.3-8.8-5.2-15.7-12.5-16.9-9-1.4-16,5.2-17.1,12.7-1.3,8.8,5.3,16.1,12.7,17,9,1.1,15.8-5.2,16.9-12.8h0Z"/>
        </g>
        <path class="cls-4" d="M179.3,461.2h4.8l-18.2-40h-.5l-18.2,40h4.8l2.9-6.5h21.5l2.9,6.5h0ZM156.7,450.9l9-20.2,9,20.2h-18ZM212.3,461.7c5.8,0,10.2-2.5,13.5-5.8l-2.6-3.6c-2.8,2.8-6.6,4.9-11.1,4.9-8.1,0-15.6-6.8-15.6-15.7s7.6-15.8,15.6-15.8,8.3,2,11.1,4.9l2.6-3.5c-3.6-3.6-8.5-5.9-13.5-6-11,0-20.2,9.2-20.2,20.3s9.3,20.2,20.2,20.2h0ZM268.6,461.2h4.8l-18.2-40h-.5l-18.2,40h4.8l2.9-6.5h21.5l2.9,6.5h0ZM246,450.9l9-20.2,9,20.2h-18ZM298.1,421.8h-11v39.4h11c12.3,0,20.1-7.6,20.1-19.7s-7.8-19.7-20.1-19.7ZM298.1,456.8h-6.6v-30.5h6.5c9.5,0,15.6,6,15.6,15.3s-6.1,15.2-15.6,15.2h0ZM356.4,426.2v-4.4h-23.1v39.4h23.1v-4.4h-18.7v-13.7h16.2v-4.4h-16.2v-12.5h18.7ZM410.4,421.1l-18.8,31.3-18.8-31.3h-.5v40.1h4.4v-26.8l14.8,26.1h0l14.8-26.1v26.7h4.4v-40.1h-.5,0ZM438.5,461.2h4.4v-16.7l13.9-22.6h-5l-11.1,17.7-11.1-17.7h-5l13.9,22.6v16.7h0Z"/>
        <path class="cls-4" d="M102.4,301.4c3.4,0,6-1.5,8-3.4l-1.5-2.1c-1.7,1.6-3.9,2.9-6.5,2.9-4.8,0-9.2-4-9.2-9.3s4.5-9.3,9.2-9.3,4.9,1.2,6.6,2.9l1.5-2.1c-2.1-2.1-5-3.5-8-3.5-6.5,0-11.9,5.4-11.9,12s5.5,11.9,11.9,11.9h0ZM124.5,301.4c6.6,0,12-5.4,12-11.9s-5.4-12-11.9-12-11.9,5.4-11.9,12,5.4,11.9,11.9,11.9ZM124.5,298.8c-5.1,0-9.3-4.2-9.3-9.3s4.2-9.3,9.3-9.3,9.3,4.2,9.3,9.3-4.2,9.3-9.3,9.3ZM157.4,277.9v17.4l-15.9-17.7h-.1v23.6h2.6v-17.3l15.9,17.7h.1v-23.6h-2.6ZM179.9,280.5v-2.6h-13.6v23.3h2.6v-10.3h9.6v-2.6h-9.6v-7.7h11ZM184.3,301.1h2.6v-23.2h-2.6v23.2ZM199.6,277.9h-6.5v23.2h6.5c7.2,0,11.8-4.5,11.8-11.6s-4.6-11.6-11.8-11.6ZM199.6,298.5h-3.9v-18h3.8c5.6,0,9.2,3.5,9.2,9s-3.6,9-9.2,9h0ZM230,280.5v-2.6h-13.6v23.2h13.6v-2.6h-11v-8.1h9.6v-2.6h-9.6v-7.3h11ZM251.5,277.9v17.4l-15.9-17.7h-.1v23.6h2.6v-17.3l15.9,17.7h.1v-23.6h-2.6ZM271,301.4c3.4,0,6-1.5,8-3.4l-1.5-2.1c-1.7,1.6-3.9,2.9-6.5,2.9-4.8,0-9.2-4-9.2-9.3s4.5-9.3,9.2-9.3,4.9,1.2,6.6,2.9l1.5-2.1c-2.1-2.1-5-3.5-8-3.5-6.5,0-11.9,5.4-11.9,12s5.5,11.9,11.9,11.9h0ZM297.1,280.5v-2.6h-13.6v23.2h13.6v-2.6h-11v-8.1h9.6v-2.6h-9.6v-7.3h11ZM317.6,301.4c4.5,0,8.2-2.6,8.2-6.6s-3.3-5.3-6.8-6.8c-3-1.2-5.5-2-5.5-4.2s2.1-3.7,4.6-3.7,4,1.2,4.7,2.9l2-1.3c-.9-2.3-3.2-4.2-6.7-4.2s-7.3,2.7-7.3,6.2,3.2,5,6,6.1c3,1.1,6.3,2.4,6.3,5s-2.5,3.9-5.5,3.9-4.8-1.3-5.9-3.3l-2,1.5c1.1,2.5,4.1,4.5,7.9,4.5h0ZM344.9,277.9h-16.1v2.6h6.8v20.6h2.6v-20.6h6.7v-2.6ZM363.3,301.1h2.9l-10.7-23.6h-.3l-10.7,23.6h2.8l1.7-3.8h12.7l1.7,3.8h0ZM349.9,295l5.3-11.9,5.3,11.9h-10.6ZM386.9,301.1l-6.9-9.4c2.8-.9,4.9-3.4,4.9-6.5s-3.5-7.4-7.8-7.4h-6.9v23.2h2.6v-9.1h4.3l6.5,9.1h3.2,0ZM372.8,289.8v-9.3h4.3c2.7,0,5,2.1,5,4.7s-2.3,4.6-5,4.6h-4.3s0,0,0,0ZM404.7,277.9h-16.1v2.6h6.8v20.6h2.6v-20.6h6.7v-2.6ZM415.6,301.4c4.5,0,8.2-2.6,8.2-6.6s-3.3-5.3-6.8-6.8c-3-1.2-5.5-2-5.5-4.2s2.1-3.7,4.6-3.7,4,1.2,4.7,2.9l2-1.3c-.9-2.3-3.2-4.2-6.7-4.2s-7.3,2.7-7.3,6.2,3.2,5,6,6.1c3,1.1,6.3,2.4,6.3,5s-2.5,3.9-5.5,3.9-4.8-1.3-5.9-3.3l-2,1.5c1.1,2.5,4.1,4.5,7.9,4.5h0ZM451.5,277.9v10.3h-11.8v-10.3h-2.6v23.2h2.6v-10.3h11.8v10.3h2.6v-23.2h-2.6ZM473.9,280.5v-2.6h-13.6v23.2h13.6v-2.6h-11v-8.1h9.6v-2.6h-9.6v-7.3h11ZM496,301.1l-6.9-9.4c2.8-.9,4.9-3.4,4.9-6.5s-3.5-7.4-7.8-7.4h-6.9v23.2h2.6v-9.1h4.3l6.5,9.1h3.2,0ZM482,289.8v-9.3h4.3c2.7,0,5,2.1,5,4.7s-2.3,4.6-5,4.6h-4.3s0,0,0,0ZM513.6,280.5v-2.6h-13.6v23.2h13.6v-2.6h-11v-8.1h9.6v-2.6h-9.6v-7.3h11Z"/>
        <path class="cls-4" d="M36,397.7c19.9,0,36.2-16.2,36.2-35.9s-16.3-36.2-36.1-36.2S0,341.8,0,361.8s16.2,35.9,36,35.9ZM36,383.6c-12.1,0-22-9.9-22-21.9s9.9-22,22-22,22,9.9,22,22-9.9,21.9-22,21.9ZM98.2,397.8c14.9,0,25.2-8.1,25.2-20.7s-7.2-16.5-18.7-22c-8-3.7-13.2-5.2-13.2-9.3s3.9-6.6,9.1-6.6,7.9,1.7,9.9,5.8l10.3-7.2c-3.1-8.4-11-12.3-20.4-12.3s-22.9,7.9-22.9,19.9,8.6,15.3,16.4,19.2c7.3,3.6,15.6,7.6,15.6,12.7s-4.4,6.4-10.9,6.4-10.4-2.2-13.5-7.2l-11.2,7.8c4.6,8.6,13,13.3,24.4,13.3h0ZM161.2,397.7c10.5,0,17.9-4.6,24.1-10.6l-8-11.3c-4.6,4.5-10.1,7.9-16.5,7.9-10.7,0-21.7-9.6-21.7-21.9s10.6-22,21.8-22,11.7,2.9,16.4,7.5l8.1-11c-7.3-7-15.3-10.6-24.3-10.7-19.5,0-36,16.6-36,36.2s16.3,36,36.3,36h0ZM235.8,396.4h15.1l-33.2-71.1h-.4l-33.1,71.1h15.1l4.4-9.7h27.8l4.4,9.7h0ZM209.1,374.8l8.5-18.5,8.4,18.5h-16.9ZM307.1,396.4l-19.7-27.6c7.4-2.6,12.8-10.4,12.8-19.3s-10.6-22.5-23.6-22.5h-22.6v69.4h14v-32.8l22.1,32.8h17ZM268,340.8h9c4.7,0,8.9,3.8,8.9,8.7s-4.2,8.8-8.9,8.7h-9v-17.5h0ZM379.7,327h-48.1v13.8h17.1v55.6h14v-55.6h17v-13.8ZM436.8,396.4l-19.7-27.6c7.4-2.6,12.8-10.4,12.8-19.3s-10.6-22.5-23.6-22.5h-22.6v69.4h14v-32.8l22.1,32.8h17ZM397.6,340.8h9c4.7,0,8.9,3.8,8.9,8.7s-4.2,8.8-8.9,8.7h-9v-17.5h0ZM481.4,340.7v-13.7h-41.8v69.4h41.8v-13.9h-27.9v-14.3h23.9v-13.9h-23.9v-13.6h27.9ZM499.1,397.9h.5c15.4,0,27.7-12.2,27.7-27.8l-.3-43.1h-13.9s.2,43,.2,43c0,7.5-6.2,14-13.8,14h-.3c-3.6,0-6.2-1.1-8.6-3.1l-7.1,12.2c4.5,3.1,9.7,4.8,15.6,4.8h0ZM567.9,397.7c19.9,0,36.2-16.2,36.2-35.9s-16.3-36.2-36.1-36.2-36.1,16.3-36.1,36.2,16.2,35.9,36,35.9h0ZM567.9,383.6c-12.1,0-22-9.9-22-21.9s9.9-22,22-22,22,9.9,22,22-9.9,21.9-22,21.9Z"/>
      </g>
    </g>
  </g>
</svg>