<?xml version="1.0" encoding="UTF-8"?>
<svg id="Capa_2" xmlns="http://www.w3.org/2000/svg" viewBox="0 0 373.33 373.33">
  <defs>
    <style>
      .cls-1 {
        fill: #fff;
        fill-rule: evenodd;
      }

      .cls-2 {
        fill: #231f20;
      }
    </style>
  </defs>
  <g id="Layer_19">
    <g>
      <circle class="cls-2" cx="186.67" cy="186.67" r="186.67"/>
      <path class="cls-1" d="M252.46,124.63c-11.74-7.22-20.76-20.76-23.02-34.3-.45-3.16-.9-5.87-.9-9.03h-35.66v142.18c0,16.7-13.54,30.24-30.24,30.24-5.42,0-9.93-1.35-14.44-3.61-9.48-4.97-16.25-15.35-16.25-26.63,0-16.7,13.54-30.24,30.69-30.24,3.16,0,5.87.45,9.03,1.35v-36.11c-3.16-.45-5.87-.9-9.03-.9-36.56,0-66.35,29.34-66.35,65.9,0,22.12,11.28,41.98,28.44,53.71,10.83,7.22,23.92,11.74,37.92,11.74,36.56,0,65.9-29.34,65.9-65.45v-74.03c13.54,12.19,31.6,18.06,49.65,16.7v-35.66c-9.03,1.81-18.06-.9-25.73-5.87Z"/>
    </g>
  </g>
</svg>