<?xml version="1.0" encoding="UTF-8"?>
<svg id="Capa_2" xmlns="http://www.w3.org/2000/svg" viewBox="0 0 373.33 373.33">
  <defs>
    <style>
      .cls-1 {
        fill: #fff;
        fill-rule: evenodd;
      }

      .cls-2 {
        fill: #231f20;
      }
    </style>
  </defs>
  <g id="Layer_19">
    <g>
      <circle class="cls-2" cx="186.67" cy="186.67" r="186.67"/>
      <path class="cls-1" d="M148.17,137.74c6.05-3.85,9.9-1.1,12.1,4.95l5.5,14.3s3.85,7.7-6.05,15.4q-1.65,1.1-1.1,3.85c2.2,6.6,11,26.4,39.04,41.79,2.75,1.65,3.3,1.65,6.05-.55,2.2-2.2,4.95-4.95,7.15-7.15,4.95-4.4,7.7-6.05,12.1-2.75,3.3,2.2,6.6,4.95,9.9,7.15,3.3,2.75,8.8,6.05,3.3,12.65l-4.95,6.05c-7.15,8.8-13.2,9.35-22.55,7.15-35.74-9.35-62.14-34.64-73.69-70.39-3.85-13.75,1.65-25.3,13.2-32.44h0ZM186.67,78.9c59.94,0,108.33,48.39,108.33,108.33s-48.39,108.33-108.33,108.33c-16.5,0-31.89-3.3-45.64-9.9l-57.74,9.9,7.7-57.19-.55-1.1c-7.7-14.85-12.1-31.89-12.1-50.04,0-59.94,48.39-108.33,108.33-108.33h0ZM118.48,271.36l15.4-2.75,9.35-1.65c13.2,7.15,27.5,11,43.44,11,47.87,0,87.19-37.24,90.51-84.29,1.62-23-3.58-47.71-26.11-70.24-22.53-22.53-41.96-26.55-62.73-26.92-50.8-.91-92.4,40.12-92.4,90.72,0,18.15,5.5,34.64,14.3,48.94l-1.1,8.25-2.2,16.5-1.65,12.65,13.2-2.2Z"/>
    </g>
  </g>
</svg>