<?xml version="1.0" encoding="utf-8"?>
<!-- Generator: $$$/GeneralStr/196=Adobe Illustrator 27.6.0, SVG Export Plug-In . SVG Version: 6.00 Build 0)  -->
<svg version="1.1" id="Capa_1" xmlns="http://www.w3.org/2000/svg" xmlns:xlink="http://www.w3.org/1999/xlink" x="0px" y="0px"
	 viewBox="0 0 20 20.4" style="enable-background:new 0 0 20 20.4;" xml:space="preserve">
<style type="text/css">
	.st0{fill:#FFFFFF;}
	.st1{fill:#25D366;}
</style>
<g>
	<g>
		<path class="st0" d="M19.7,7.5c-0.9-3.5-3.7-6.3-7.3-7.2S5,0.6,2.6,3.3c-3,3.4-3.4,8.4-1,12.2c-0.2,1.4-0.3,2.7-0.5,4.1
			c-0.1,0.5,0.5,0.8,1,0.7c1.3-0.4,2.7-0.7,4-1.1c3.6,1.5,7.8,0.8,10.7-1.9C19.5,14.9,20.6,11,19.7,7.5z"/>
	</g>
	<path class="st1" d="M17,14.9c-2.3,3.4-6.8,4.6-10.5,2.9c0,0,0,0,0,0c-0.2-0.1-0.3-0.1-0.6-0.1c-1.1,0.3-2.1,0.6-3.2,0.9
		c0.1-0.9,0.2-1.8,0.3-2.7c0-0.3,0.1-0.6,0-1c-0.1-0.2-0.3-0.4-0.4-0.6c-0.3-0.5-0.5-1-0.7-1.4c-0.6-1.8-0.6-3.7-0.1-5.5
		c1-3.1,3.8-5.4,7-5.8c3.3-0.5,6.6,1.1,8.4,3.9C19,8.4,18.9,12.1,17,14.9z"/>
	<path class="st0" d="M15.3,11.3l-1.7-1.3c-0.5-0.4-1.3-0.3-1.7,0.1l-0.5,0.5c-0.4-0.2-0.7-0.5-1.1-0.8C10,9.4,9.7,9.1,9.5,8.7
		L10,8.2c0.5-0.5,0.5-1.2,0.1-1.7L8.8,4.7C8.5,4.3,8.1,4.1,7.6,4.1c-0.5,0-0.9,0.2-1.2,0.5L4.9,6.1c-0.8,0.8-1,2.1-0.5,3.2
		c0.7,1.4,1.6,2.6,2.7,3.7s2.3,2,3.7,2.7c0.4,0.2,0.8,0.3,1.3,0.3c0.7,0,1.4-0.3,1.9-0.8l1.5-1.5c0.3-0.3,0.5-0.8,0.5-1.2
		C15.9,12,15.7,11.5,15.3,11.3z M14.4,12.6l-1.5,1.5c-0.4,0.4-1,0.5-1.4,0.2c-1.2-0.6-2.3-1.4-3.3-2.4S6.4,9.8,5.7,8.5
		c-0.2-0.5-0.2-1,0.2-1.4l1.5-1.5c0,0,0,0,0,0l0,0c0,0,0,0,0,0l1.2,1.6L8.2,7.7C7.9,8.1,7.7,8.7,8,9.2c0.3,0.6,0.7,1.1,1.2,1.6
		c0.5,0.5,1,0.9,1.6,1.2c0.5,0.3,1.1,0.2,1.4-0.2l0.5-0.5l1.6,1.2C14.3,12.5,14.4,12.5,14.4,12.6C14.4,12.5,14.4,12.6,14.4,12.6z"/>
</g>
</svg>
