<?xml version="1.0" encoding="UTF-8"?>
<svg xmlns="http://www.w3.org/2000/svg" version="1.1" viewBox="0 0 50 50">
  <defs>
    <style>
      .cls-1 {
        fill: #fff;
      }
    </style>
  </defs>
  <!-- Generator: Adobe Illustrator 28.7.1, SVG Export Plug-In . SVG Version: 1.2.0 Build 142)  -->
  <g>
    <g id="Capa_1">
      <g id="Capa_1-2" data-name="Capa_1">
        <path class="cls-1" d="M8.4,43.6s0,0,0,0c0,0,.1,0,.2.2,4.4,3.9,10.1,6.2,16.4,6.2s12-2.3,16.4-6.2l.2-.2h0c5.2-4.5,8.4-11.2,8.4-18.6s-3.2-14.1-8.4-18.6h0s0,0-.2-.2C37,2.3,31.3,0,25,0S13,2.3,8.6,6.2l-.2.2h0C3.2,10.9,0,17.6,0,25s3.2,14.1,8.4,18.6ZM12.1,25.9c0,4.8.8,9.1,2,12.8-1.8.9-3.5,2-5.1,3.2-4.4-4-7.2-9.7-7.4-16.1h10.5ZM16.3,39.6c2.5-1,5.1-1.5,7.8-1.6v10.3c-3.1-.5-5.9-3.8-7.8-8.6h0ZM25.9,48.2v-10.3c2.7,0,5.3.7,7.8,1.6-1.9,4.8-4.7,8.1-7.8,8.6h0ZM25.9,36.3v-10.4h10.3c0,4.4-.8,8.6-2,12.2-2.6-1.1-5.5-1.6-8.4-1.8h0ZM25.9,24.1v-10.4c2.9-.1,5.7-.7,8.4-1.8,1.2,3.5,1.9,7.7,2,12.2h-10.4ZM25.9,12V1.8c3.1.5,5.9,3.8,7.8,8.6-2.5,1-5.1,1.5-7.8,1.6ZM24.1,1.8v10.3c-2.7-.1-5.3-.7-7.8-1.6,1.9-4.8,4.7-8.1,7.8-8.6h0ZM24.1,13.8v10.4h-10.3c0-4.4.8-8.6,2-12.2,2.6,1.1,5.5,1.6,8.4,1.8h-.1ZM24.1,25.9v10.4c-2.9,0-5.7.7-8.4,1.8-1.2-3.5-1.9-7.7-2-12.2,0,0,10.4,0,10.4,0ZM10.3,43.1c1.4-1.1,2.8-2,4.4-2.8,1.3,3.1,2.8,5.6,4.7,7.3-3.4-.9-6.4-2.4-9-4.5h-.1ZM35.3,40.3c1.5.7,3,1.7,4.4,2.8-2.6,2.1-5.7,3.7-9,4.5,1.8-1.7,3.4-4.2,4.7-7.3h-.1ZM40.9,42c-1.6-1.3-3.2-2.4-5.1-3.2,1.2-3.7,2-8.1,2-12.8h10.4c-.2,6.3-3,12-7.4,16.1h0ZM48.3,24.1h-10.4c0-4.8-.8-9.1-2-12.8,1.8-.9,3.5-2,5.1-3.2,4.4,4,7.2,9.7,7.4,16.1h-.1ZM39.7,6.9c-1.4,1.1-2.8,2-4.4,2.8-1.2-3.1-2.8-5.6-4.7-7.3,3.4.9,6.4,2.4,9,4.5h.1ZM14.7,9.7c-1.5-.7-3-1.7-4.4-2.8,2.6-2.1,5.7-3.7,9-4.5-1.8,1.7-3.4,4.2-4.7,7.3h.1ZM9.1,8c1.6,1.3,3.2,2.4,5.1,3.2-1.3,3.7-2,8.1-2,12.8H1.7c.2-6.3,3-12,7.4-16.1h0Z"/>
      </g>
    </g>
  </g>
</svg>