<?xml version="1.0" encoding="UTF-8"?>
<svg xmlns="http://www.w3.org/2000/svg" version="1.1" viewBox="0 0 50 50">
  <defs>
    <style>
      .cls-1 {
        fill: #fff;
      }
    </style>
  </defs>
  <!-- Generator: Adobe Illustrator 28.7.1, SVG Export Plug-In . SVG Version: 1.2.0 Build 142)  -->
  <g>
    <g id="Capa_1">
      <path class="cls-1" d="M43.1,4.2h-4.2V0h-2.8v4.2H13.9V0h-2.8v4.2h-4.2C3.1,4.2,0,7.3,0,11.1v31.9c0,3.8,3.1,6.9,6.9,6.9h36.1c3.8,0,6.9-3.1,6.9-6.9V11.1c0-3.8-3.1-6.9-6.9-6.9ZM47.2,43.1c0,2.3-1.9,4.2-4.2,4.2H6.9c-2.3,0-4.2-1.9-4.2-4.2v-25h44.4v25ZM47.2,15.3H2.8v-4.2c0-2.3,1.9-4.2,4.2-4.2h4.2v2.8h2.8v-2.8h22.2v2.8h2.8v-2.8h4.2c2.3,0,4.2,1.9,4.2,4.2v4.2Z"/>
    </g>
  </g>
</svg>