<?xml version="1.0" encoding="UTF-8"?>
<svg xmlns="http://www.w3.org/2000/svg" version="1.1" viewBox="0 0 50 50">
  <defs>
    <style>
      .cls-1 {
        fill: #fff;
      }
    </style>
  </defs>
  <!-- Generator: Adobe Illustrator 28.7.1, SVG Export Plug-In . SVG Version: 1.2.0 Build 142)  -->
  <g>
    <g id="Capa_1">
      <path class="cls-1" d="M50,5.7c0-.2-.3-.4-.5-.4h-3.6c0-.3-.1-.6-.3-.8-.2-.2-.5-.3-.8-.3V.6c0-.2-.1-.4-.4-.5-.2,0-.5,0-.6.1l-3.9,3.9c-.1.1-.2.3-.2.4v4.3s-1.8,1.8-1.8,1.8c-4-3.6-9.3-5.8-15.1-5.8C10.2,4.7,0,14.9,0,27.4s10.2,22.7,22.7,22.7,22.7-10.2,22.7-22.7-2.2-11.2-5.9-15.2l1.8-1.8h4.3c.2,0,.3,0,.4-.2l3.9-3.9c.2-.2.2-.4.1-.6ZM41.2,27.4c0,10.3-8.3,18.6-18.6,18.6S4.1,37.6,4.1,27.4,12.4,8.8,22.7,8.8s9,1.7,12.2,4.6l-3.5,3.5c-2.4-2-5.4-3.2-8.8-3.2-7.5,0-13.7,6.1-13.7,13.7s6.1,13.7,13.7,13.7,13.7-6.1,13.7-13.7-1.2-6.5-3.3-8.8l3.5-3.5c2.9,3.3,4.7,7.6,4.7,12.3ZM32.8,27.4c0,5.6-4.6,10.2-10.2,10.2s-10.2-4.6-10.2-10.2,4.6-10.2,10.2-10.2,4.5.8,6.3,2.2l-3.5,3.5c-.8-.5-1.7-.8-2.8-.8-2.9,0-5.3,2.4-5.3,5.3s2.4,5.3,5.3,5.3,5.3-2.4,5.3-5.3-.3-2-.8-2.9l3.5-3.5c1.4,1.7,2.3,4,2.3,6.4Z"/>
    </g>
  </g>
</svg>