<?xml version="1.0" encoding="UTF-8"?>
<svg id="Capa_2" xmlns="http://www.w3.org/2000/svg" xmlns:xlink="http://www.w3.org/1999/xlink" viewBox="0 0 412.26 267.11">
  <defs>
    <style>
      .cls-1 {
        fill: #bfc0da;
      }

      .cls-1, .cls-2, .cls-3, .cls-4, .cls-5, .cls-6, .cls-7, .cls-8, .cls-9, .cls-10, .cls-11, .cls-12, .cls-13, .cls-14, .cls-15, .cls-16, .cls-17, .cls-18, .cls-19 {
        fill-rule: evenodd;
      }

      .cls-2 {
        fill: #9b6b9e;
      }

      .cls-3 {
        fill: #cfeaf9;
      }

      .cls-4 {
        fill: #5da8ae;
      }

      .cls-5 {
        fill: #a8d0d4;
      }

      .cls-6 {
        fill: #79387d;
      }

      .cls-7 {
        fill: #292d7d;
      }

      .cls-8 {
        fill: #017680;
      }

      .cls-9 {
        fill: #fad4ac;
      }

      .cls-10 {
        fill: #ef8819;
      }

      .cls-11 {
        fill: #a5ddf7;
      }

      .cls-12 {
        fill: #e9dee9;
      }

      .cls-20 {
        opacity: .35;
      }

      .cls-13 {
        fill: url(#linear-gradient);
      }

      .cls-14 {
        fill: #f6b671;
      }

      .cls-15 {
        fill: #88b1bf;
      }

      .cls-16 {
        fill: #2da3b6;
      }

      .cls-17 {
        fill: #dcddeb;
      }

      .cls-18 {
        fill: #54c2c7;
      }

      .cls-19 {
        fill: #4a7698;
      }
    </style>
    <linearGradient id="linear-gradient" x1="205.02" y1="143.91" x2="239.54" y2="143.91" gradientUnits="userSpaceOnUse">
      <stop offset="0" stop-color="#fff"/>
      <stop offset="1" stop-color="#000"/>
    </linearGradient>
  </defs>
  <g id="Layer_17_copy">
    <g class="cls-20">
      <polygon class="cls-14" points="202.15 246.57 236.67 267.11 236.67 226.02 202.15 246.57"/>
      <polygon class="cls-12" points="32.41 20.55 66.93 41.09 66.93 0 32.41 20.55"/>
      <polygon class="cls-14" points="101.45 20.55 135.97 41.09 135.97 0 101.45 20.55"/>
      <polygon class="cls-2" points="170.49 61.64 205.02 41.09 170.49 20.55 170.49 61.64"/>
      <polygon class="cls-17" points="135.98 41.09 170.49 61.64 170.49 20.55 135.98 41.09"/>
      <polygon class="cls-10" points="239.54 20.55 274.06 41.09 274.06 0 239.54 20.55"/>
      <polygon class="cls-2" points="239.54 61.64 274.06 41.09 239.54 20.55 239.54 61.64"/>
      <polygon class="cls-6" points="205.02 41.09 239.54 61.64 239.54 20.55 205.02 41.09"/>
      <polygon class="cls-9" points="274.06 0 274.06 41.09 308.58 20.55 274.06 0"/>
      <polygon class="cls-2" points="308.58 20.55 343.1 41.09 343.1 0 308.58 20.55"/>
      <polygon class="cls-7" points="308.58 61.64 343.1 41.09 308.58 20.55 308.58 61.64"/>
      <polygon class="cls-6" points="274.06 41.09 308.58 61.64 308.58 20.55 274.06 41.09"/>
      <polygon class="cls-14" points="343.11 0 343.11 41.09 377.63 20.55 343.11 0"/>
      <polygon class="cls-8" points="377.63 20.55 412.15 41.09 412.15 0 377.63 20.55"/>
      <polygon class="cls-10" points="377.63 61.64 412.15 41.09 377.63 20.55 377.63 61.64"/>
      <polygon class="cls-6" points="343.11 41.09 377.63 61.64 377.63 20.55 343.11 41.09"/>
      <polygon class="cls-5" points="32.52 61.57 32.52 102.66 67.04 82.11 32.52 61.57"/>
      <polygon class="cls-17" points="67.04 123.21 101.56 102.66 67.04 82.11 67.04 123.21"/>
      <polygon class="cls-5" points="101.56 61.57 101.56 102.66 136.08 82.11 101.56 61.57"/>
      <polygon class="cls-2" points="136.08 123.21 170.61 102.66 136.08 82.11 136.08 123.21"/>
      <polygon class="cls-17" points="170.61 61.57 170.61 102.66 205.13 82.11 170.61 61.57"/>
      <polygon class="cls-7" points="239.65 61.57 205.13 41.03 205.13 82.11 239.65 61.57"/>
      <polygon class="cls-14" points="205.13 82.11 239.65 102.66 239.65 61.57 205.13 82.11"/>
      <polygon class="cls-8" points="170.61 102.66 205.13 123.21 205.13 82.11 170.61 102.66"/>
      <polygon class="cls-6" points="239.65 61.57 239.65 102.66 274.17 82.11 239.65 61.57"/>
      <polygon class="cls-12" points="274.17 41.03 239.65 61.57 274.17 82.11 274.17 41.03"/>
      <polygon class="cls-1" points="308.69 61.57 274.17 41.03 274.17 82.11 308.69 61.57"/>
      <polygon class="cls-2" points="274.17 82.11 308.69 102.66 308.69 61.57 274.17 82.11"/>
      <polygon class="cls-4" points="274.17 123.21 308.69 102.66 274.17 82.11 274.17 123.21"/>
      <polygon class="cls-7" points="239.65 102.66 274.17 123.21 274.17 82.11 239.65 102.66"/>
      <polygon class="cls-14" points="308.69 61.57 308.69 102.66 343.22 82.11 308.69 61.57"/>
      <polygon class="cls-8" points="343.22 41.03 308.69 61.57 343.22 82.11 343.22 41.03"/>
      <polygon class="cls-7" points="377.74 61.57 343.22 41.03 343.22 82.11 377.74 61.57"/>
      <polygon class="cls-10" points="343.22 82.11 377.74 102.66 377.74 61.57 343.22 82.11"/>
      <polygon class="cls-9" points="343.22 123.21 377.74 102.66 343.22 82.11 343.22 123.21"/>
      <polygon class="cls-6" points="308.69 102.66 343.22 123.21 343.22 82.11 308.69 102.66"/>
      <polygon class="cls-9" points="377.74 61.57 377.74 102.66 412.26 82.11 377.74 61.57"/>
      <polygon class="cls-7" points="412.26 41.03 377.74 61.57 412.26 82.11 412.26 41.03"/>
      <polygon class="cls-8" points="377.74 102.66 412.26 123.21 412.26 82.11 377.74 102.66"/>
      <polygon class="cls-11" points="66.94 123.37 66.94 164.45 101.45 143.91 66.94 123.37"/>
      <polygon class="cls-4" points="135.97 123.37 101.45 102.82 101.45 143.91 135.97 123.37"/>
      <polygon class="cls-2" points="66.94 164.45 101.45 185 101.45 143.91 66.94 164.45"/>
      <polygon class="cls-9" points="135.98 123.37 135.98 164.45 170.49 143.91 135.98 123.37"/>
      <polygon class="cls-9" points="0 123.37 0 164.45 34.52 143.91 0 123.37"/>
      <polygon class="cls-4" points="205.02 123.37 170.49 102.82 170.49 143.91 205.02 123.37"/>
      <polygon class="cls-10" points="170.49 143.91 205.02 164.45 205.02 123.37 170.49 143.91"/>
      <polygon class="cls-18" points="170.49 185 205.02 164.45 170.49 143.91 170.49 185"/>
      <polygon class="cls-15" points="135.98 164.45 170.49 185 170.49 143.91 135.98 164.45"/>
      <polygon class="cls-13" points="205.02 123.37 205.02 164.45 239.54 143.91 205.02 123.37"/>
      <polygon class="cls-14" points="239.54 102.82 205.02 123.37 239.54 143.91 239.54 102.82"/>
      <polygon class="cls-1" points="274.06 123.37 239.54 102.82 239.54 143.91 274.06 123.37"/>
      <polygon class="cls-5" points="239.54 143.91 274.06 164.45 274.06 123.37 239.54 143.91"/>
      <polygon class="cls-9" points="239.54 185 274.06 164.45 239.54 143.91 239.54 185"/>
      <polygon class="cls-19" points="205.02 164.45 239.54 185 239.54 143.91 205.02 164.45"/>
      <polygon class="cls-10" points="274.06 123.37 274.06 164.45 308.58 143.91 274.06 123.37"/>
      <polygon class="cls-6" points="308.58 102.82 274.06 123.37 308.58 143.91 308.58 102.82"/>
      <polygon class="cls-7" points="343.1 123.37 308.58 102.82 308.58 143.91 343.1 123.37"/>
      <polygon class="cls-2" points="308.58 143.91 343.1 164.45 343.1 123.37 308.58 143.91"/>
      <polygon class="cls-8" points="308.58 185 343.1 164.45 308.58 143.91 308.58 185"/>
      <polygon class="cls-5" points="274.06 164.45 308.58 185 308.58 143.91 274.06 164.45"/>
      <polygon class="cls-8" points="343.11 123.37 343.11 164.45 377.63 143.91 343.11 123.37"/>
      <polygon class="cls-4" points="377.63 102.82 343.11 123.37 377.63 143.91 377.63 102.82"/>
      <polygon class="cls-6" points="412.15 123.37 377.63 102.82 377.63 143.91 412.15 123.37"/>
      <polygon class="cls-10" points="377.63 143.91 412.15 164.45 412.15 123.37 377.63 143.91"/>
      <polygon class="cls-7" points="377.63 185 412.15 164.45 377.63 143.91 377.63 185"/>
      <polygon class="cls-2" points="343.11 164.45 377.63 185 377.63 143.91 343.11 164.45"/>
      <polygon class="cls-9" points="67.04 205.48 101.56 226.02 101.56 184.94 67.04 205.48"/>
      <polygon class="cls-9" points="238.87 225.7 273.39 246.24 273.39 205.15 238.87 225.7"/>
      <polygon class="cls-3" points="136.08 164.39 101.56 184.94 136.08 205.48 136.08 164.39"/>
      <polygon class="cls-1" points="136.08 205.48 170.61 226.02 170.61 184.94 136.08 205.48"/>
      <polygon class="cls-2" points="136.08 246.57 170.61 226.02 136.08 205.48 136.08 246.57"/>
      <polygon class="cls-14" points="170.61 184.94 170.61 226.02 205.13 205.48 170.61 184.94"/>
      <polygon class="cls-12" points="205.13 164.39 170.61 184.94 205.13 205.48 205.13 164.39"/>
      <polygon class="cls-2" points="239.65 184.94 205.13 164.39 205.13 205.48 239.65 184.94"/>
      <polygon class="cls-16" points="205.13 205.48 239.65 226.02 239.65 184.94 205.13 205.48"/>
      <polygon class="cls-6" points="205.13 246.57 239.65 226.02 205.13 205.48 205.13 246.57"/>
      <polygon class="cls-1" points="170.61 226.02 205.13 246.57 205.13 205.48 170.61 226.02"/>
      <polygon class="cls-7" points="239.65 184.94 239.65 226.02 274.17 205.48 239.65 184.94"/>
      <polygon class="cls-17" points="274.17 164.39 239.65 184.94 274.17 205.48 274.17 164.39"/>
      <polygon class="cls-14" points="308.69 184.94 274.17 164.39 274.17 205.48 308.69 184.94"/>
      <polygon class="cls-2" points="308.69 184.94 308.69 226.02 343.22 205.48 308.69 184.94"/>
      <polygon class="cls-6" points="343.22 164.39 308.69 184.94 343.22 205.48 343.22 164.39"/>
      <polygon class="cls-9" points="377.74 184.94 343.22 164.39 343.22 205.48 377.74 184.94"/>
      <polygon class="cls-14" points="343.22 205.48 377.74 226.02 377.74 184.94 343.22 205.48"/>
      <polygon class="cls-7" points="343.22 246.57 377.74 226.02 343.22 205.48 343.22 246.57"/>
      <polygon class="cls-8" points="308.69 226.02 343.22 246.57 343.22 205.48 308.69 226.02"/>
      <polygon class="cls-10" points="377.74 184.94 377.74 226.02 412.26 205.48 377.74 184.94"/>
      <polygon class="cls-6" points="412.26 164.39 377.74 184.94 412.26 205.48 412.26 164.39"/>
      <polygon class="cls-7" points="377.74 226.02 412.26 246.57 412.26 205.48 377.74 226.02"/>
    </g>
  </g>
</svg>