<?xml version="1.0" encoding="UTF-8"?>
<svg id="Capa_2" xmlns="http://www.w3.org/2000/svg" viewBox="0 0 915.55 239.85">
  <defs>
    <style>
      .cls-1 {
        fill: #00717b;
      }

      .cls-1, .cls-2, .cls-3, .cls-4 {
        fill-rule: evenodd;
      }

      .cls-2, .cls-5 {
        fill: #252368;
      }

      .cls-3 {
        fill: #a54686;
      }

      .cls-6 {
        fill: #4f4f4f;
      }

      .cls-7, .cls-8 {
        fill: none;
        stroke: #e8e9f4;
        stroke-miterlimit: 10;
      }

      .cls-4 {
        fill: #ee8422;
      }

      .cls-8 {
        stroke-width: 1.53px;
      }
    </style>
  </defs>
  <g id="Layer_1">
    <g>
      <g>
        <path class="cls-1" d="M884.6,47.07c.89-5.46-2.5-9.43-5.76-11-2.06-.99-4.69-1.44-7.25-.78-2.72.71-3.77,1.64-5.29,3.19-1.41,1.43-4.68,5.94-7.95,9.26-14.45,14.67-35.08,25-59.6,25.86-26.7.94-54.38-12.81-69.73-33.24-1.4-1.87-2.23-3.06-4.51-4.23-6.26-3.19-14.15.37-15.34,7.65-.94,5.7,2.74,9.09,5.03,11.96,1.01,1.26,4.97,5.91,6.14,6.83.98.77,1.21,1.33,2.06,2.17.89.87,1.48,1.32,2.42,2.1l4.53,3.93c.96.8,1.41,1.16,2.36,1.87,3.22,2.38,6.42,4.75,10.06,6.86,33.9,19.63,73.53,20.72,107.88,1.29,6.7-3.79,9.74-6.2,15.39-10.56,3.6-2.78,7.94-6.98,10.98-10.47,2.86-3.29,7.79-7.84,8.58-12.69Z"/>
        <path class="cls-4" d="M909.98,96.98c.8-5.24-2.5-9.27-5.63-10.86-4.11-2.08-9.71-.79-14.2.18-13.67,2.94-24.88,7.31-36.1,14.36-9.28,5.83-15.63,11.51-22.89,19.13l-3.74,4.45c-20.48,24.95-31.32,65.78-16.95,104.28,1.8,4.83,2.94,8.15,6.81,10.12,8.59,4.36,19.16-3.76,14.13-14.7-9.42-20.5-7.69-49.82,1.77-69.09,2.98-6.07,8.58-15.65,13.38-20.48,1.55-1.56,2.66-2.97,4.14-4.32.83-.76,1.4-1.19,2.18-2.05.87-.95,1.36-1.15,2.27-1.96,8.66-7.8,21.09-14.1,32.74-17.47,9.41-2.73,20.44-.83,22.09-11.58Z"/>
        <path class="cls-3" d="M678.42,93.32c.78,11.02,13.67,9.87,21.43,12.01,8.77,2.42,16.51,5.88,23.31,10.25,5.58,3.58,11.92,8.49,16.37,13.24,22.95,24.46,30.48,58.92,17.56,91.8-1.92,4.89-2.18,8.73,1.11,12.5,2.54,2.92,7.11,5,12.28,2.85,4.12-1.72,5.39-5.15,7.05-9.58,6.72-17.91,9.06-38.2,5.03-58.54-3.86-19.53-11.53-33.56-21.1-46.01l-8.02-8.89c-.76-.68-1.27-1.46-2.06-2.17-8.2-7.4-16.39-13.76-27.19-18.78-7.01-3.26-31.47-12.93-39.7-9.13-3.31,1.53-6.43,5.32-6.07,10.45Z"/>
        <path class="cls-1" d="M820.34.36c-7.15,1.67-13.43,8.6-11.53,17.77,1.45,7.02,8.7,13.7,17.95,11.52,7.01-1.65,13.22-8.47,11.41-17.5-1.7-8.44-10.09-13.59-17.82-11.79Z"/>
        <path class="cls-4" d="M915.33,157.06c1.53-8.94-5.11-16.07-12.51-17.24-8.91-1.41-15.7,5-17.02,12.34-1.63,9.03,5.02,16.28,12.48,17.32,8.98,1.26,15.77-4.94,17.05-12.43Z"/>
        <path class="cls-1" d="M767.09.4c-7.07,1.65-13.29,8.52-11.49,17.6,1.41,7.14,8.72,13.69,17.88,11.68,6.94-1.52,13.39-8.57,11.5-17.64-1.79-8.6-10.2-13.44-17.89-11.64Z"/>
        <path class="cls-3" d="M699.57,199.36c.88,7.8,7.63,13.91,16.5,13.21,7.58-.6,14.23-8.03,13.29-16.6-.83-7.55-7.84-14.31-16.63-13.21-7.72.97-14.16,7.7-13.16,16.6Z"/>
        <path class="cls-3" d="M702.71,153.67c1.41-8.79-5.27-15.75-12.58-16.88-8.98-1.4-15.99,5.27-17.08,12.71-1.31,8.93,5.21,15.79,12.75,16.96,8.92,1.39,15.71-5.33,16.91-12.79Z"/>
        <path class="cls-4" d="M888.81,202.75c1.31-8.78-5.24-15.71-12.53-16.87-9.02-1.45-16.03,5.22-17.12,12.67-1.29,8.82,5.32,16.09,12.74,17.01,9.01,1.11,15.78-5.16,16.91-12.8Z"/>
      </g>
      <g>
        <path class="cls-2" d="M36.03,72.48c19.9,0,36.16-16.19,36.16-35.94S55.93.33,36.08.33,0,16.6,0,36.54s16.24,35.94,36.03,35.94h0ZM36.03,58.36c-12.09,0-21.95-9.86-21.95-21.91s9.86-22.04,21.95-22.04,22.04,9.89,22.04,22.04-9.9,21.91-22.04,21.91h0ZM98.17,72.53c14.86,0,25.19-8.05,25.19-20.7,0-10.68-7.23-16.53-18.72-21.97-7.96-3.73-13.22-5.16-13.22-9.29,0-3.59,3.88-6.6,9.08-6.6,3.88,0,7.89,1.69,9.95,5.82l10.29-7.19C117.59,4.2,109.75.29,100.29.29c-12.74,0-22.91,7.92-22.91,19.93,0,11.07,8.57,15.33,16.36,19.21,7.29,3.61,15.59,7.61,15.59,12.7,0,3.7-4.39,6.38-10.93,6.38-5.98,0-10.42-2.25-13.47-7.16l-11.15,7.85c4.64,8.6,13.05,13.34,24.41,13.34h0ZM161.23,72.48c10.51,0,17.94-4.57,24.07-10.64l-8.01-11.27c-4.61,4.51-10.12,7.92-16.49,7.92-10.73,0-21.75-9.57-21.75-21.92s10.64-22.04,21.78-22.04c6,0,11.67,2.85,16.41,7.49l8.05-10.98c-7.29-7.01-15.3-10.59-24.33-10.71-19.54,0-36.03,16.58-36.03,36.16s16.28,35.99,36.3,35.99h0ZM235.82,71.15l-4.39-9.68h-27.76l-4.44,9.68h-15.06L217.3.02h.44l33.18,71.12h-15.11ZM209.09,49.57h16.91l-8.43-18.54-8.48,18.54h0ZM307.13,71.15l-19.71-27.6c7.44-2.63,12.83-10.42,12.83-19.32,0-12.49-10.64-22.48-23.6-22.48h-22.64l.04,69.4h13.94v-32.8l22.09,32.8h17.05ZM267.96,15.57h8.96c4.69,0,8.95,3.79,8.95,8.73s-4.22,8.79-8.95,8.74l-8.96-.04V15.57h0ZM379.65,1.74h-48.12v13.83h17.09v55.57h13.99V15.57h17.05V1.74h0ZM436.76,71.15l-19.71-27.6c7.44-2.63,12.83-10.42,12.83-19.32,0-12.49-10.64-22.48-23.6-22.48h-22.64l.04,69.4h13.94v-32.8l22.09,32.8h17.05ZM397.58,15.57h8.96c4.69,0,8.95,3.79,8.95,8.73s-4.22,8.79-8.95,8.74l-8.96-.04V15.57h0ZM481.38,15.48V1.74h-41.85v69.4h41.85v-13.86h-27.9v-14.34h23.94v-13.9h-23.94v-13.56h27.9ZM499.15,72.69h.47c15.37,0,27.68-12.18,27.68-27.8l-.26-43.1-13.95-.04.25,43.06c0,7.49-6.16,13.99-13.81,13.99h-.31c-3.57,0-6.19-1.07-8.6-3.1l-7.07,12.23c4.53,3.14,9.73,4.78,15.59,4.78h0ZM567.92,72.48c19.9,0,36.16-16.19,36.16-35.94S587.82.33,567.96.33s-36.08,16.27-36.08,36.21,16.24,35.94,36.03,35.94h0ZM567.92,58.36c-12.09,0-21.95-9.86-21.95-21.91s9.86-22.04,21.95-22.04,22.04,9.89,22.04,22.04-9.9,21.91-22.04,21.91Z"/>
        <g>
          <path class="cls-5" d="M264.63,150.24c-2.22,3.13-3.56,5.62-4.01,7.48-.45,1.86-.11,3.2,1.04,4.01,1.14.81,2.94,1.25,5.41,1.31l-.45,1.8c-1.68-.12-3.43-.19-5.23-.23-1.8-.03-3.49-.04-5.05-.04s-2.76.02-3.79.04c-1.02.03-2.01.11-2.97.23l.45-1.8c.84-.18,1.71-.55,2.62-1.13.9-.57,1.89-1.4,2.97-2.48,1.08-1.08,2.22-2.49,3.43-4.24l38.86-54.64h1.35l3.61,56.71c.18,2.16.74,3.65,1.67,4.46.93.81,1.85,1.25,2.75,1.31l-.36,1.8c-1.2-.12-2.7-.19-4.51-.23-1.8-.03-3.58-.04-5.32-.04-2.16,0-4.21.02-6.13.04-1.92.03-3.49.11-4.69.23l.36-1.8c2.88-.12,4.93-.64,6.13-1.58,1.2-.93,1.74-2.93,1.62-6l-2.43-44.54.63-.18-27.95,39.49ZM271.84,138.88h26.33l-.72,1.8h-27.23l1.62-1.8Z"/>
          <path class="cls-5" d="M343.25,119.04c-2.29,0-4.55.93-6.81,2.79-2.25,1.86-4.31,4.42-6.18,7.66s-3.35,6.94-4.46,11.09-1.67,8.51-1.67,13.07c0,3.07.59,5.28,1.76,6.63,1.17,1.35,2.69,2.03,4.55,2.03,2.16,0,4.39-.66,6.67-1.98,2.28-1.32,4.57-3.67,6.85-7.03l1.8.72c-1.14,1.98-2.65,3.91-4.51,5.77s-3.95,3.38-6.27,4.55c-2.32,1.17-4.76,1.76-7.35,1.76-3.61,0-6.49-1.11-8.66-3.34-2.16-2.22-3.25-5.53-3.25-9.92,0-2.76.41-5.75,1.22-8.97.81-3.21,1.98-6.4,3.52-9.56,1.53-3.16,3.41-6.01,5.63-8.57,2.22-2.55,4.75-4.61,7.57-6.18,2.82-1.56,5.92-2.34,9.29-2.34,2.64,0,4.93.68,6.85,2.03s2.89,3.23,2.89,5.63c0,1.14-.26,2.27-.77,3.38-.51,1.11-1.25,2.03-2.21,2.75-.96.72-2.1,1.08-3.43,1.08s-2.2-.34-2.8-1.04c-.6-.69-.9-1.52-.9-2.48,0-1.74.69-3.23,2.07-4.46,1.38-1.23,2.94-2,4.69-2.3-.6-.84-1.38-1.52-2.34-2.03-.96-.51-2.22-.77-3.79-.77Z"/>
          <path class="cls-5" d="M364.98,163.22c1.44,0,3.1-.92,4.96-2.75,1.86-1.83,3.76-4.31,5.68-7.44,1.92-3.12,3.7-6.67,5.32-10.64,1.62-3.97,2.92-8.08,3.88-12.35l-1.53,9.74c-2.28,6.37-4.57,11.5-6.85,15.37-2.29,3.88-4.6,6.67-6.94,8.38-2.34,1.71-4.72,2.57-7.12,2.57-2.83,0-4.95-1.02-6.36-3.07-1.41-2.04-2.12-4.66-2.12-7.84,0-2.88.48-6.03,1.44-9.42.96-3.4,2.3-6.78,4.01-10.14,1.71-3.37,3.68-6.43,5.91-9.2,2.22-2.76,4.64-4.99,7.26-6.67,2.62-1.68,5.28-2.52,7.98-2.52,2.1,0,3.71,1.04,4.82,3.11,1.11,2.07,1.34,4.97.68,8.7l-.99.54c.42-3.18.21-5.75-.63-7.71-.84-1.95-2.22-2.93-4.15-2.93-1.56,0-3.2.77-4.91,2.3-1.71,1.53-3.37,3.61-4.96,6.22-1.59,2.61-3.04,5.54-4.33,8.79-1.29,3.25-2.31,6.6-3.07,10.05-.75,3.46-1.13,6.78-1.13,9.96,0,2.58.28,4.39.86,5.41.57,1.02,1.34,1.53,2.3,1.53ZM387.7,118.5c1.44-.06,2.89-.18,4.33-.36,1.44-.18,2.76-.48,3.97-.9l-11.27,39.85c-.12.54-.29,1.25-.5,2.12-.21.87-.21,1.67,0,2.39.21.72.83,1.08,1.85,1.08,1.2,0,2.37-.66,3.52-1.98,1.14-1.32,2.28-3.73,3.43-7.21l1.08-3.34h1.71l-2.25,6.58c-.84,2.4-1.85,4.28-3.02,5.63-1.17,1.35-2.39,2.31-3.65,2.88-1.26.57-2.5.86-3.7.86-2.34,0-4-.78-4.96-2.34-.78-1.38-.99-2.99-.63-4.82.36-1.83.78-3.68,1.26-5.54l8.84-34.89Z"/>
          <path class="cls-5" d="M413.3,163.22c1.5,0,3.2-.89,5.09-2.66,1.89-1.77,3.82-4.18,5.77-7.21,1.95-3.03,3.76-6.49,5.41-10.37s2.96-7.89,3.92-12.04l-1.35,9.74c-2.34,6.19-4.67,11.15-6.99,14.88-2.31,3.73-4.66,6.42-7.03,8.07-2.38,1.65-4.85,2.48-7.44,2.48-1.86,0-3.5-.44-4.91-1.31-1.41-.87-2.51-2.18-3.29-3.92-.78-1.74-1.17-3.97-1.17-6.67,0-2.88.46-6,1.4-9.33.93-3.34,2.27-6.63,4.01-9.87,1.74-3.25,3.83-6.21,6.27-8.88,2.43-2.67,5.12-4.82,8.07-6.45s6.07-2.43,9.38-2.43c1.38,0,2.67.53,3.88,1.58,1.2,1.05,1.86,2.63,1.98,4.73l-.72,1.8c-.24-2.16-.84-3.71-1.8-4.64-.96-.93-2.04-1.4-3.25-1.4-2.29,0-4.49.78-6.63,2.34-2.13,1.56-4.07,3.64-5.82,6.22-1.74,2.58-3.28,5.46-4.6,8.61-1.32,3.16-2.34,6.37-3.07,9.65-.72,3.28-1.08,6.36-1.08,9.24,0,2.65.33,4.61.99,5.91.66,1.29,1.65,1.94,2.97,1.94ZM433.5,157.18c-.42,1.38-.59,2.66-.5,3.83.09,1.17.8,1.76,2.12,1.76,1.2,0,2.31-.68,3.34-2.03,1.02-1.35,2.1-3.74,3.25-7.17l1.08-3.34h1.71l-2.07,6.58c-.72,2.4-1.68,4.28-2.89,5.63-1.2,1.35-2.46,2.3-3.79,2.84-1.32.54-2.58.81-3.79.81-3.61,0-5.5-1.71-5.68-5.14-.06-.96.01-2.07.23-3.34.21-1.26.53-2.64.95-4.15l12.98-48.78c.54-2.04.45-3.55-.27-4.51-.72-.96-2.56-1.44-5.5-1.44l.54-1.89c3.3-.06,6.22-.41,8.75-1.04,2.53-.63,4.93-1.52,7.21-2.66l-17.67,64.02Z"/>
          <path class="cls-5" d="M456.67,144.38c3.37-1.14,6.42-2.27,9.15-3.38,2.73-1.11,4.91-2.3,6.54-3.56,2.16-1.74,3.88-3.85,5.14-6.31,1.26-2.46,1.89-5.17,1.89-8.12,0-1.74-.12-2.85-.36-3.34-.24-.48-.6-.72-1.08-.72-1.5,0-3.13.66-4.87,1.98-1.74,1.32-3.46,3.14-5.14,5.46-1.68,2.31-3.23,4.94-4.64,7.89-1.41,2.95-2.54,6.09-3.38,9.42-.84,3.34-1.26,6.66-1.26,9.96,0,3.07.57,5.28,1.71,6.63,1.14,1.35,2.64,2.03,4.51,2.03,2.16,0,4.45-.66,6.85-1.98,2.4-1.32,4.75-3.67,7.03-7.03l1.44.72c-1.14,1.98-2.65,3.91-4.51,5.77s-3.95,3.38-6.27,4.55c-2.32,1.17-4.76,1.76-7.35,1.76-2.4,0-4.51-.48-6.31-1.44-1.8-.96-3.19-2.39-4.15-4.28-.96-1.89-1.44-4.22-1.44-6.99,0-2.58.48-5.49,1.44-8.7.96-3.21,2.33-6.43,4.1-9.65,1.77-3.21,3.89-6.18,6.36-8.88,2.46-2.71,5.2-4.87,8.21-6.49,3-1.62,6.22-2.43,9.65-2.43,1.86,0,3.44.5,4.73,1.49,1.29.99,1.94,2.48,1.94,4.46,0,2.41-.71,4.64-2.12,6.72-1.41,2.07-3.28,3.97-5.59,5.68-2.31,1.71-4.82,3.23-7.53,4.55-2.71,1.32-5.35,2.47-7.93,3.43-2.58.96-4.87,1.74-6.85,2.34l.09-1.53Z"/>
          <path class="cls-5" d="M498.69,164.85h-7.84l10.82-38.68c.18-.54.35-1.25.5-2.12.15-.87.14-1.67-.04-2.39-.18-.72-.75-1.08-1.71-1.08-1.32,0-2.52.69-3.61,2.07-1.08,1.38-2.22,3.76-3.43,7.12l-1.17,3.34h-1.71l2.25-6.58c.9-2.52,1.97-4.45,3.2-5.77,1.23-1.32,2.52-2.24,3.88-2.75,1.35-.51,2.63-.77,3.83-.77,1.8,0,3.1.41,3.88,1.22.78.81,1.22,1.86,1.31,3.16.09,1.29-.02,2.66-.32,4.1-.3,1.44-.63,2.83-.99,4.15l-8.84,34.98ZM524.2,127.7c.42-1.26.71-2.46.86-3.61.15-1.14.06-2.09-.27-2.84-.33-.75-1.07-1.13-2.21-1.13-1.68,0-3.53,1.04-5.54,3.11-2.01,2.07-4.06,4.96-6.13,8.66-2.07,3.7-4.07,7.99-6,12.89-1.92,4.9-3.64,10.14-5.14,15.73l2.98-14.43c2.76-7.21,5.35-12.92,7.75-17.13,2.4-4.21,4.82-7.21,7.26-9.02,2.43-1.8,5.03-2.7,7.8-2.7,1.92,0,3.32.44,4.19,1.31.87.87,1.4,2,1.58,3.38.18,1.38.13,2.86-.14,4.42-.27,1.56-.59,3.07-.95,4.51l-9.2,33.99h-8.12l11.27-37.15ZM546.74,127.7c.6-1.86.9-3.59.9-5.18s-.66-2.39-1.98-2.39c-1.8,0-3.7,1.05-5.68,3.16-1.98,2.11-4.03,5.09-6.13,8.97-2.1,3.88-4.19,8.42-6.27,13.61-2.07,5.2-4.07,10.93-6,17.18l2.07-11.54c2.34-6.25,4.51-11.56,6.49-15.91,1.98-4.36,3.94-7.89,5.86-10.59,1.92-2.71,3.91-4.67,5.95-5.91,2.04-1.23,4.27-1.85,6.67-1.85,2.52,0,4.24.72,5.14,2.16.9,1.44,1.28,3.2,1.13,5.27-.15,2.07-.56,4.13-1.22,6.18l-8.75,26.33c-.6,1.86-.81,3.26-.63,4.19.18.93.87,1.4,2.07,1.4s2.27-.63,3.38-1.89c1.11-1.26,2.3-3.7,3.56-7.3l1.17-3.34h1.71l-2.25,6.58c-.84,2.52-1.88,4.45-3.11,5.77-1.23,1.32-2.53,2.24-3.88,2.75-1.35.51-2.66.77-3.92.77-1.5,0-2.69-.23-3.56-.68-.87-.45-1.55-1.04-2.03-1.76-.72-1.14-.96-2.57-.72-4.28s.72-3.68,1.44-5.91l8.57-25.79Z"/>
          <path class="cls-5" d="M566.49,177.56c2.58-1.38,5.33-3.26,8.25-5.63,2.92-2.38,5.93-5.58,9.06-9.6,3.55-4.51,6.78-9.57,9.69-15.19,2.91-5.62,4.94-11.28,6.09-17-.96-.54-2-1.22-3.11-2.03-1.11-.81-2.03-1.77-2.75-2.89-.72-1.11-1.05-2.36-.99-3.74.12-1.38.6-2.43,1.44-3.16.84-.72,1.89-1.08,3.16-1.08,1.62,0,2.81.62,3.56,1.85.75,1.23,1.13,3.05,1.13,5.46,0,3.07-.51,6.36-1.53,9.87-1.02,3.52-2.39,7.08-4.1,10.68-1.71,3.61-3.62,7.08-5.73,10.41-2.1,3.34-4.24,6.36-6.4,9.06-.96,1.2-2.29,2.71-3.97,4.51-1.68,1.8-3.68,3.65-6,5.54-2.31,1.89-4.91,3.53-7.8,4.91-1.8.84-3.35,1.43-4.64,1.76-1.29.33-2.36.5-3.2.5-1.2,0-2.25-.32-3.16-.95s-1.35-1.55-1.35-2.75c0-1.32.5-2.33,1.49-3.02.99-.69,2.12-1.04,3.38-1.04,1.38,0,2.69.36,3.92,1.08,1.23.72,2.42,1.53,3.56,2.43ZM586.23,161.24l-6.04,6.58-6.85-41.47c-.3-1.86-.66-3.16-1.08-3.88-.42-.72-1.02-1.08-1.8-1.08-.66,0-1.41.53-2.25,1.58-.84,1.05-1.86,3.29-3.07,6.72l-1.17,3.34h-1.71l2.25-6.58c1.26-3.67,2.82-6.12,4.69-7.35,1.86-1.23,3.76-1.85,5.68-1.85s3.31.59,4.33,1.76c1.02,1.17,1.74,3.35,2.16,6.54l4.87,35.7Z"/>
        </g>
      </g>
      <line class="cls-7" x1="642.83" y1=".02" x2="642.83" y2="239.85"/>
      <line class="cls-8" x1="604.08" y1="197.85" x2="0" y2="197.85"/>
      <g>
        <path class="cls-6" d="M.32,218.81h2.96v20.75H.32v-20.75Z"/>
        <path class="cls-6" d="M27.36,218.81v20.75h-2.43l-12.45-15.48v15.48h-2.96v-20.75h2.43l12.45,15.48v-15.48h2.96Z"/>
        <path class="cls-6" d="M47.97,229.07h2.85v8.09c-2.08,1.75-4.95,2.64-7.86,2.64-6.37,0-11.06-4.48-11.06-10.61s4.68-10.61,11.12-10.61c3.29,0,6.08,1.1,7.98,3.2l-1.84,1.84c-1.72-1.66-3.68-2.4-6.02-2.4-4.8,0-8.27,3.35-8.27,7.97s3.47,7.98,8.24,7.98c1.75,0,3.38-.39,4.86-1.33v-6.76Z"/>
        <path class="cls-6" d="M56.48,218.81h2.96v18.17h11.24v2.58h-14.2v-20.75Z"/>
        <path class="cls-6" d="M89.16,236.99v2.58h-15.06v-20.75h14.65v2.58h-11.68v6.37h10.41v2.52h-10.41v6.7h12.1ZM81.89,217.12h-2.67l4.03-3.85h3.62l-4.98,3.85Z"/>
        <path class="cls-6" d="M92.07,237.19l1.1-2.31c1.54,1.39,4.18,2.4,6.85,2.4,3.59,0,5.13-1.39,5.13-3.2,0-5.07-12.57-1.87-12.57-9.58,0-3.2,2.49-5.93,7.95-5.93,2.43,0,4.95.65,6.67,1.84l-.98,2.37c-1.81-1.16-3.85-1.69-5.69-1.69-3.53,0-5.04,1.48-5.04,3.29,0,5.07,12.57,1.9,12.57,9.52,0,3.17-2.55,5.9-8.03,5.9-3.17,0-6.29-1.07-7.95-2.61Z"/>
        <path class="cls-6" d="M118.66,229.19c0-6.14,4.68-10.61,11-10.61,3.2,0,5.99,1.1,7.89,3.23l-1.93,1.87c-1.6-1.69-3.56-2.46-5.84-2.46-4.68,0-8.15,3.38-8.15,7.97s3.47,7.98,8.15,7.98c2.28,0,4.24-.8,5.84-2.49l1.93,1.87c-1.9,2.13-4.68,3.26-7.92,3.26-6.29,0-10.97-4.48-10.97-10.61Z"/>
        <path class="cls-6" d="M139.66,229.19c0-6.08,4.68-10.61,11.06-10.61s11,4.51,11,10.61-4.68,10.61-11,10.61-11.06-4.54-11.06-10.61ZM158.75,229.19c0-4.59-3.44-7.97-8.04-7.97s-8.09,3.38-8.09,7.97,3.44,7.98,8.09,7.98,8.04-3.38,8.04-7.98Z"/>
        <path class="cls-6" d="M184.1,218.81v20.75h-2.43l-12.45-15.48v15.48h-2.96v-20.75h2.43l12.45,15.48v-15.48h2.96Z"/>
        <path class="cls-6" d="M196.62,229.19c0-6.14,4.68-10.61,11-10.61,3.2,0,5.99,1.1,7.89,3.23l-1.93,1.87c-1.6-1.69-3.56-2.46-5.84-2.46-4.68,0-8.15,3.38-8.15,7.97s3.47,7.98,8.15,7.98c2.28,0,4.24-.8,5.84-2.49l1.93,1.87c-1.9,2.13-4.68,3.26-7.92,3.26-6.29,0-10.97-4.48-10.97-10.61Z"/>
        <path class="cls-6" d="M217.61,229.19c0-6.08,4.68-10.61,11.06-10.61s11,4.51,11,10.61-4.68,10.61-11,10.61-11.06-4.54-11.06-10.61ZM236.71,229.19c0-4.59-3.44-7.97-8.04-7.97s-8.09,3.38-8.09,7.97,3.44,7.98,8.09,7.98,8.04-3.38,8.04-7.98Z"/>
        <path class="cls-6" d="M262.06,218.81v20.75h-2.43l-12.45-15.48v15.48h-2.96v-20.75h2.43l12.45,15.48v-15.48h2.96Z"/>
        <path class="cls-6" d="M271.25,221.39v7.23h10.41v2.55h-10.41v8.39h-2.96v-20.75h14.65v2.58h-11.68Z"/>
        <path class="cls-6" d="M287.12,218.81h2.96v20.75h-2.96v-20.75Z"/>
        <path class="cls-6" d="M309.53,234.38h-11.03l-2.28,5.19h-3.05l9.4-20.75h2.93l9.43,20.75h-3.11l-2.28-5.19ZM308.5,232.01l-4.48-10.17-4.48,10.17h8.95Z"/>
        <path class="cls-6" d="M335.86,218.81v20.75h-2.43l-12.45-15.48v15.48h-2.96v-20.75h2.43l12.45,15.48v-15.48h2.96Z"/>
        <path class="cls-6" d="M357.6,236.99v2.58h-17.34v-2.02l13.05-16.16h-12.84v-2.58h16.75v2.02l-12.99,16.16h13.37Z"/>
        <path class="cls-6" d="M374.8,234.38h-11.03l-2.28,5.19h-3.05l9.4-20.75h2.93l9.43,20.75h-3.11l-2.28-5.19ZM373.76,232.01l-4.48-10.17-4.48,10.17h8.95Z"/>
        <path class="cls-6" d="M399.2,232.39v7.17h-2.94v-7.23l-8.24-13.52h3.17l6.64,10.94,6.67-10.94h2.94l-8.24,13.58Z"/>
        <path class="cls-6" d="M433.48,236.99v2.58h-15.06v-20.75h14.65v2.58h-11.68v6.37h10.41v2.52h-10.41v6.7h12.1Z"/>
        <path class="cls-6" d="M436.39,237.19l1.1-2.31c1.54,1.39,4.18,2.4,6.85,2.4,3.59,0,5.13-1.39,5.13-3.2,0-5.07-12.57-1.87-12.57-9.58,0-3.2,2.49-5.93,7.95-5.93,2.43,0,4.95.65,6.67,1.84l-.98,2.37c-1.81-1.16-3.85-1.69-5.69-1.69-3.53,0-5.04,1.48-5.04,3.29,0,5.07,12.57,1.9,12.57,9.52,0,3.17-2.55,5.9-8.03,5.9-3.17,0-6.29-1.07-7.95-2.61Z"/>
        <path class="cls-6" d="M460.53,221.39h-7.12v-2.58h17.17v2.58h-7.12v18.17h-2.93v-18.17Z"/>
        <path class="cls-6" d="M487.68,239.57l-4.48-6.37c-.42.03-.86.06-1.3.06h-5.13v6.32h-2.96v-20.75h8.09c5.4,0,8.66,2.73,8.66,7.23,0,3.2-1.66,5.51-4.57,6.55l4.92,6.97h-3.23ZM487.6,226.05c0-2.96-1.99-4.65-5.78-4.65h-5.04v9.34h5.04c3.79,0,5.78-1.72,5.78-4.68Z"/>
        <path class="cls-6" d="M508.59,234.38h-11.03l-2.28,5.19h-3.05l9.4-20.75h2.93l9.43,20.75h-3.11l-2.28-5.19ZM507.55,232.01l-4.48-10.17-4.48,10.17h8.95Z"/>
        <path class="cls-6" d="M520.16,221.39h-7.12v-2.58h17.17v2.58h-7.12v18.17h-2.93v-18.17Z"/>
        <path class="cls-6" d="M548.5,236.99v2.58h-15.06v-20.75h14.65v2.58h-11.68v6.37h10.41v2.52h-10.41v6.7h12.1Z"/>
        <path class="cls-6" d="M567.6,229.07h2.85v8.09c-2.08,1.75-4.95,2.64-7.86,2.64-6.37,0-11.06-4.48-11.06-10.61s4.68-10.61,11.12-10.61c3.29,0,6.08,1.1,7.98,3.2l-1.84,1.84c-1.72-1.66-3.68-2.4-6.02-2.4-4.8,0-8.27,3.35-8.27,7.97s3.47,7.98,8.24,7.98c1.75,0,3.38-.39,4.86-1.33v-6.76Z"/>
        <path class="cls-6" d="M576.11,218.81h2.96v20.75h-2.96v-20.75Z"/>
        <path class="cls-6" d="M598.53,234.38h-11.03l-2.28,5.19h-3.05l9.4-20.75h2.93l9.43,20.75h-3.11l-2.28-5.19ZM597.49,232.01l-4.48-10.17-4.48,10.17h8.95Z"/>
      </g>
    </g>
  </g>
</svg>