<?xml version="1.0" encoding="UTF-8"?>
<svg xmlns="http://www.w3.org/2000/svg" version="1.1" viewBox="0 0 584.9 267.1">
  <defs>
    <style>
      .cls-1 {
        fill: #bfc0da;
      }

      .cls-1, .cls-2, .cls-3, .cls-4, .cls-5, .cls-6, .cls-7, .cls-8, .cls-9, .cls-10, .cls-11, .cls-12, .cls-13, .cls-14, .cls-15, .cls-16, .cls-17, .cls-18 {
        fill-rule: evenodd;
      }

      .cls-2 {
        fill: #9b6b9e;
      }

      .cls-3 {
        fill: #cfeaf9;
      }

      .cls-4 {
        fill: #5da8ae;
      }

      .cls-5 {
        fill: #a8d0d4;
      }

      .cls-6 {
        fill: #79387d;
      }

      .cls-7 {
        fill: #292d7d;
      }

      .cls-8 {
        fill: #017680;
      }

      .cls-9 {
        fill: #fad4ac;
      }

      .cls-10 {
        fill: #ef8819;
      }

      .cls-11 {
        fill: #a5ddf7;
      }

      .cls-12 {
        fill: #e9dee9;
      }

      .cls-19 {
        opacity: .1;
      }

      .cls-13 {
        fill: #f6b671;
      }

      .cls-14 {
        fill: #88b1bf;
      }

      .cls-15 {
        fill: #2da3b6;
      }

      .cls-16 {
        fill: #dcddeb;
      }

      .cls-17 {
        fill: #54c2c7;
      }

      .cls-18 {
        fill: #4a7698;
      }
    </style>
  </defs>
  <!-- Generator: Adobe Illustrator 28.7.1, SVG Export Plug-In . SVG Version: 1.2.0 Build 142)  -->
  <g>
    <g id="Capa_2">
      <g id="Layer_17_copy">
        <g class="cls-19">
          <polygon class="cls-12" points="81.5 72.4 116 92.9 116 51.8 81.5 72.4"/>
          <polygon class="cls-13" points="374.8 246.6 409.3 267.1 409.3 226 374.8 246.6"/>
          <polygon class="cls-5" points="114.4 164.4 114.4 205.5 148.9 185 114.4 164.4"/>
          <polygon class="cls-12" points="205.1 20.5 239.6 41.1 239.6 0 205.1 20.5"/>
          <polygon class="cls-13" points="274.1 20.5 308.6 41.1 308.6 0 274.1 20.5"/>
          <polygon class="cls-2" points="343.1 61.6 377.7 41.1 343.1 20.5 343.1 61.6"/>
          <polygon class="cls-16" points="308.6 41.1 343.1 61.6 343.1 20.5 308.6 41.1"/>
          <polygon class="cls-10" points="412.2 20.5 446.7 41.1 446.7 0 412.2 20.5"/>
          <polygon class="cls-2" points="412.2 61.6 446.7 41.1 412.2 20.5 412.2 61.6"/>
          <polygon class="cls-6" points="377.7 41.1 412.2 61.6 412.2 20.5 377.7 41.1"/>
          <polygon class="cls-9" points="446.7 0 446.7 41.1 481.2 20.5 446.7 0"/>
          <polygon class="cls-2" points="481.2 20.5 515.8 41.1 515.8 0 481.2 20.5"/>
          <polygon class="cls-7" points="481.2 61.6 515.8 41.1 481.2 20.5 481.2 61.6"/>
          <polygon class="cls-6" points="446.7 41.1 481.2 61.6 481.2 20.5 446.7 41.1"/>
          <polygon class="cls-13" points="515.8 0 515.8 41.1 550.3 20.5 515.8 0"/>
          <polygon class="cls-8" points="550.3 20.5 584.8 41.1 584.8 0 550.3 20.5"/>
          <polygon class="cls-10" points="550.3 61.6 584.8 41.1 550.3 20.5 550.3 61.6"/>
          <polygon class="cls-6" points="515.8 41.1 550.3 61.6 550.3 20.5 515.8 41.1"/>
          <polygon class="cls-5" points="205.2 61.6 205.2 102.7 239.7 82.1 205.2 61.6"/>
          <polygon class="cls-16" points="239.7 123.2 274.2 102.7 239.7 82.1 239.7 123.2"/>
          <polygon class="cls-5" points="274.2 61.6 274.2 102.7 308.7 82.1 274.2 61.6"/>
          <polygon class="cls-2" points="308.7 123.2 343.3 102.7 308.7 82.1 308.7 123.2"/>
          <polygon class="cls-16" points="343.3 61.6 343.3 102.7 377.8 82.1 343.3 61.6"/>
          <polygon class="cls-7" points="412.3 61.6 377.8 41 377.8 82.1 412.3 61.6"/>
          <polygon class="cls-13" points="377.8 82.1 412.3 102.7 412.3 61.6 377.8 82.1"/>
          <polygon class="cls-8" points="343.3 102.7 377.8 123.2 377.8 82.1 343.3 102.7"/>
          <polygon class="cls-6" points="412.3 61.6 412.3 102.7 446.8 82.1 412.3 61.6"/>
          <polygon class="cls-12" points="446.8 41 412.3 61.6 446.8 82.1 446.8 41"/>
          <polygon class="cls-1" points="481.3 61.6 446.8 41 446.8 82.1 481.3 61.6"/>
          <polygon class="cls-2" points="446.8 82.1 481.3 102.7 481.3 61.6 446.8 82.1"/>
          <polygon class="cls-4" points="446.8 123.2 481.3 102.7 446.8 82.1 446.8 123.2"/>
          <polygon class="cls-7" points="412.3 102.7 446.8 123.2 446.8 82.1 412.3 102.7"/>
          <polygon class="cls-13" points="481.3 61.6 481.3 102.7 515.9 82.1 481.3 61.6"/>
          <polygon class="cls-8" points="515.9 41 481.3 61.6 515.9 82.1 515.9 41"/>
          <polygon class="cls-7" points="550.4 61.6 515.9 41 515.9 82.1 550.4 61.6"/>
          <polygon class="cls-10" points="515.9 82.1 550.4 102.7 550.4 61.6 515.9 82.1"/>
          <polygon class="cls-9" points="515.9 123.2 550.4 102.7 515.9 82.1 515.9 123.2"/>
          <polygon class="cls-6" points="481.3 102.7 515.9 123.2 515.9 82.1 481.3 102.7"/>
          <polygon class="cls-9" points="550.4 61.6 550.4 102.7 584.9 82.1 550.4 61.6"/>
          <polygon class="cls-7" points="584.9 41 550.4 61.6 584.9 82.1 584.9 41"/>
          <polygon class="cls-8" points="550.4 102.7 584.9 123.2 584.9 82.1 550.4 102.7"/>
          <polygon class="cls-11" points="239.6 123.4 239.6 164.4 274.1 143.9 239.6 123.4"/>
          <polygon class="cls-4" points="308.6 123.4 274.1 102.8 274.1 143.9 308.6 123.4"/>
          <polygon class="cls-2" points="239.6 164.4 274.1 185 274.1 143.9 239.6 164.4"/>
          <polygon class="cls-9" points="308.6 123.4 308.6 164.4 343.1 143.9 308.6 123.4"/>
          <polygon class="cls-9" points="172.7 123.4 172.7 164.4 207.2 143.9 172.7 123.4"/>
          <polygon class="cls-4" points="377.7 123.4 343.1 102.8 343.1 143.9 377.7 123.4"/>
          <polygon class="cls-10" points="343.1 143.9 377.7 164.4 377.7 123.4 343.1 143.9"/>
          <polygon class="cls-17" points="343.1 185 377.7 164.4 343.1 143.9 343.1 185"/>
          <polygon class="cls-14" points="308.6 164.4 343.1 185 343.1 143.9 308.6 164.4"/>
          <polygon class="cls-6" points="377.7 123.4 377.7 164.4 412.2 143.9 377.7 123.4"/>
          <polygon class="cls-13" points="412.2 102.8 377.7 123.4 412.2 143.9 412.2 102.8"/>
          <polygon class="cls-1" points="446.7 123.4 412.2 102.8 412.2 143.9 446.7 123.4"/>
          <polygon class="cls-5" points="412.2 143.9 446.7 164.4 446.7 123.4 412.2 143.9"/>
          <polygon class="cls-9" points="412.2 185 446.7 164.4 412.2 143.9 412.2 185"/>
          <polygon class="cls-18" points="377.7 164.4 412.2 185 412.2 143.9 377.7 164.4"/>
          <polygon class="cls-10" points="446.7 123.4 446.7 164.4 481.2 143.9 446.7 123.4"/>
          <polygon class="cls-6" points="481.2 102.8 446.7 123.4 481.2 143.9 481.2 102.8"/>
          <polygon class="cls-7" points="515.8 123.4 481.2 102.8 481.2 143.9 515.8 123.4"/>
          <polygon class="cls-2" points="481.2 143.9 515.8 164.4 515.8 123.4 481.2 143.9"/>
          <polygon class="cls-8" points="481.2 185 515.8 164.4 481.2 143.9 481.2 185"/>
          <polygon class="cls-5" points="446.7 164.4 481.2 185 481.2 143.9 446.7 164.4"/>
          <polygon class="cls-8" points="515.8 123.4 515.8 164.4 550.3 143.9 515.8 123.4"/>
          <polygon class="cls-4" points="550.3 102.8 515.8 123.4 550.3 143.9 550.3 102.8"/>
          <polygon class="cls-6" points="584.8 123.4 550.3 102.8 550.3 143.9 584.8 123.4"/>
          <polygon class="cls-10" points="550.3 143.9 584.8 164.4 584.8 123.4 550.3 143.9"/>
          <polygon class="cls-7" points="550.3 185 584.8 164.4 550.3 143.9 550.3 185"/>
          <polygon class="cls-2" points="515.8 164.4 550.3 185 550.3 143.9 515.8 164.4"/>
          <polygon class="cls-9" points="239.7 205.5 274.2 226 274.2 184.9 239.7 205.5"/>
          <polygon class="cls-9" points="411.5 225.7 446 246.2 446 205.1 411.5 225.7"/>
          <polygon class="cls-3" points="308.7 164.4 274.2 184.9 308.7 205.5 308.7 164.4"/>
          <polygon class="cls-1" points="308.7 205.5 343.3 226 343.3 184.9 308.7 205.5"/>
          <polygon class="cls-2" points="308.7 246.6 343.3 226 308.7 205.5 308.7 246.6"/>
          <polygon class="cls-13" points="343.3 184.9 343.3 226 377.8 205.5 343.3 184.9"/>
          <polygon class="cls-12" points="377.8 164.4 343.3 184.9 377.8 205.5 377.8 164.4"/>
          <polygon class="cls-2" points="412.3 184.9 377.8 164.4 377.8 205.5 412.3 184.9"/>
          <polygon class="cls-15" points="377.8 205.5 412.3 226 412.3 184.9 377.8 205.5"/>
          <polygon class="cls-6" points="377.8 246.6 412.3 226 377.8 205.5 377.8 246.6"/>
          <polygon class="cls-1" points="343.3 226 377.8 246.6 377.8 205.5 343.3 226"/>
          <polygon class="cls-7" points="412.3 184.9 412.3 226 446.8 205.5 412.3 184.9"/>
          <polygon class="cls-16" points="446.8 164.4 412.3 184.9 446.8 205.5 446.8 164.4"/>
          <polygon class="cls-13" points="481.3 184.9 446.8 164.4 446.8 205.5 481.3 184.9"/>
          <polygon class="cls-2" points="481.3 184.9 481.3 226 515.9 205.5 481.3 184.9"/>
          <polygon class="cls-6" points="515.9 164.4 481.3 184.9 515.9 205.5 515.9 164.4"/>
          <polygon class="cls-9" points="550.4 184.9 515.9 164.4 515.9 205.5 550.4 184.9"/>
          <polygon class="cls-13" points="515.9 205.5 550.4 226 550.4 184.9 515.9 205.5"/>
          <polygon class="cls-7" points="515.9 246.6 550.4 226 515.9 205.5 515.9 246.6"/>
          <polygon class="cls-8" points="481.3 226 515.9 246.6 515.9 205.5 481.3 226"/>
          <polygon class="cls-10" points="550.4 184.9 550.4 226 584.9 205.5 550.4 184.9"/>
          <polygon class="cls-6" points="584.9 164.4 550.4 184.9 584.9 205.5 584.9 164.4"/>
          <polygon class="cls-7" points="550.4 226 584.9 246.6 584.9 205.5 550.4 226"/>
          <polygon class="cls-12" points="67.4 184.5 32.8 164 32.8 205.1 67.4 184.5"/>
          <polygon class="cls-5" points="34.5 92.5 34.5 51.4 0 71.9 34.5 92.5"/>
        </g>
      </g>
    </g>
  </g>
</svg>