<?xml version="1.0" encoding="UTF-8"?>
<svg id="Capa_2" xmlns="http://www.w3.org/2000/svg" viewBox="0 0 584.92 267.11">
  <defs>
    <style>
      .cls-1 {
        fill: #bfc0da;
      }

      .cls-1, .cls-2, .cls-3, .cls-4, .cls-5, .cls-6, .cls-7, .cls-8, .cls-9, .cls-10, .cls-11, .cls-12, .cls-13, .cls-14, .cls-15, .cls-16, .cls-17, .cls-18 {
        fill-rule: evenodd;
      }

      .cls-2 {
        fill: #9b6b9e;
      }

      .cls-3 {
        fill: #cfeaf9;
      }

      .cls-4 {
        fill: #5da8ae;
      }

      .cls-5 {
        fill: #a8d0d4;
      }

      .cls-6 {
        fill: #79387d;
      }

      .cls-7 {
        fill: #292d7d;
      }

      .cls-8 {
        fill: #017680;
      }

      .cls-9 {
        fill: #fad4ac;
      }

      .cls-10 {
        fill: #ef8819;
      }

      .cls-11 {
        fill: #a5ddf7;
      }

      .cls-12 {
        fill: #e9dee9;
      }

      .cls-19 {
        opacity: .1;
      }

      .cls-13 {
        fill: #f6b671;
      }

      .cls-14 {
        fill: #88b1bf;
      }

      .cls-15 {
        fill: #2da3b6;
      }

      .cls-16 {
        fill: #dcddeb;
      }

      .cls-17 {
        fill: #54c2c7;
      }

      .cls-18 {
        fill: #4a7698;
      }
    </style>
  </defs>
  <g id="Layer_17_copy">
    <g class="cls-19">
      <polygon class="cls-12" points="503.39 194.74 468.87 174.2 468.87 215.29 503.39 194.74"/>
      <polygon class="cls-13" points="210.11 20.55 175.59 0 175.59 41.09 210.11 20.55"/>
      <polygon class="cls-5" points="470.55 102.66 470.55 61.57 436.02 82.12 470.55 102.66"/>
      <polygon class="cls-12" points="379.85 246.57 345.33 226.02 345.33 267.11 379.85 246.57"/>
      <polygon class="cls-13" points="310.81 246.57 276.29 226.02 276.29 267.11 310.81 246.57"/>
      <polygon class="cls-2" points="241.77 205.48 207.24 226.02 241.77 246.57 241.77 205.48"/>
      <polygon class="cls-16" points="276.28 226.02 241.77 205.48 241.77 246.57 276.28 226.02"/>
      <polygon class="cls-10" points="172.72 246.57 138.2 226.02 138.2 267.11 172.72 246.57"/>
      <polygon class="cls-2" points="172.72 205.48 138.2 226.02 172.72 246.57 172.72 205.48"/>
      <polygon class="cls-6" points="207.24 226.02 172.72 205.48 172.72 246.57 207.24 226.02"/>
      <polygon class="cls-9" points="138.2 267.11 138.2 226.02 103.68 246.57 138.2 267.11"/>
      <polygon class="cls-2" points="103.68 246.57 69.16 226.02 69.16 267.11 103.68 246.57"/>
      <polygon class="cls-7" points="103.68 205.48 69.16 226.02 103.68 246.57 103.68 205.48"/>
      <polygon class="cls-6" points="138.2 226.02 103.68 205.48 103.68 246.57 138.2 226.02"/>
      <polygon class="cls-13" points="69.15 267.11 69.15 226.02 34.63 246.57 69.15 267.11"/>
      <polygon class="cls-8" points="34.63 246.57 .11 226.02 .11 267.11 34.63 246.57"/>
      <polygon class="cls-10" points="34.63 205.48 .11 226.02 34.63 246.57 34.63 205.48"/>
      <polygon class="cls-6" points="69.15 226.02 34.63 205.48 34.63 246.57 69.15 226.02"/>
      <polygon class="cls-5" points="379.74 205.54 379.74 164.45 345.22 185 379.74 205.54"/>
      <polygon class="cls-16" points="345.22 143.91 310.7 164.45 345.22 185 345.22 143.91"/>
      <polygon class="cls-5" points="310.7 205.54 310.7 164.45 276.18 185 310.7 205.54"/>
      <polygon class="cls-2" points="276.18 143.91 241.65 164.45 276.18 185 276.18 143.91"/>
      <polygon class="cls-16" points="241.65 205.54 241.65 164.45 207.13 185 241.65 205.54"/>
      <polygon class="cls-7" points="172.61 205.54 207.13 226.09 207.13 185 172.61 205.54"/>
      <polygon class="cls-13" points="207.13 185 172.61 164.45 172.61 205.54 207.13 185"/>
      <polygon class="cls-8" points="241.65 164.45 207.13 143.91 207.13 185 241.65 164.45"/>
      <polygon class="cls-6" points="172.61 205.54 172.61 164.45 138.09 185 172.61 205.54"/>
      <polygon class="cls-12" points="138.09 226.09 172.61 205.54 138.09 185 138.09 226.09"/>
      <polygon class="cls-1" points="103.57 205.54 138.09 226.09 138.09 185 103.57 205.54"/>
      <polygon class="cls-2" points="138.09 185 103.57 164.45 103.57 205.54 138.09 185"/>
      <polygon class="cls-4" points="138.09 143.91 103.57 164.45 138.09 185 138.09 143.91"/>
      <polygon class="cls-7" points="172.61 164.45 138.09 143.91 138.09 185 172.61 164.45"/>
      <polygon class="cls-13" points="103.57 205.54 103.57 164.45 69.04 185 103.57 205.54"/>
      <polygon class="cls-8" points="69.04 226.09 103.57 205.54 69.04 185 69.04 226.09"/>
      <polygon class="cls-7" points="34.52 205.54 69.04 226.09 69.04 185 34.52 205.54"/>
      <polygon class="cls-10" points="69.04 185 34.52 164.45 34.52 205.54 69.04 185"/>
      <polygon class="cls-9" points="69.04 143.91 34.52 164.45 69.04 185 69.04 143.91"/>
      <polygon class="cls-6" points="103.57 164.45 69.04 143.91 69.04 185 103.57 164.45"/>
      <polygon class="cls-9" points="34.52 205.54 34.52 164.45 0 185 34.52 205.54"/>
      <polygon class="cls-7" points="0 226.09 34.52 205.54 0 185 0 226.09"/>
      <polygon class="cls-8" points="34.52 164.45 0 143.91 0 185 34.52 164.45"/>
      <polygon class="cls-11" points="345.32 143.74 345.32 102.66 310.81 123.21 345.32 143.74"/>
      <polygon class="cls-4" points="276.29 143.74 310.81 164.29 310.81 123.21 276.29 143.74"/>
      <polygon class="cls-2" points="345.32 102.66 310.81 82.11 310.81 123.21 345.32 102.66"/>
      <polygon class="cls-9" points="276.28 143.74 276.28 102.66 241.77 123.21 276.28 143.74"/>
      <polygon class="cls-9" points="412.26 143.74 412.26 102.66 377.74 123.21 412.26 143.74"/>
      <polygon class="cls-4" points="207.24 143.74 241.77 164.29 241.77 123.21 207.24 143.74"/>
      <polygon class="cls-10" points="241.77 123.21 207.24 102.66 207.24 143.74 241.77 123.21"/>
      <polygon class="cls-17" points="241.77 82.11 207.24 102.66 241.77 123.21 241.77 82.11"/>
      <polygon class="cls-14" points="276.28 102.66 241.77 82.11 241.77 123.21 276.28 102.66"/>
      <polygon class="cls-6" points="207.24 143.74 207.24 102.66 172.72 123.21 207.24 143.74"/>
      <polygon class="cls-13" points="172.72 164.29 207.24 143.74 172.72 123.21 172.72 164.29"/>
      <polygon class="cls-1" points="138.2 143.74 172.72 164.29 172.72 123.21 138.2 143.74"/>
      <polygon class="cls-5" points="172.72 123.21 138.2 102.66 138.2 143.74 172.72 123.21"/>
      <polygon class="cls-9" points="172.72 82.11 138.2 102.66 172.72 123.21 172.72 82.11"/>
      <polygon class="cls-18" points="207.24 102.66 172.72 82.11 172.72 123.21 207.24 102.66"/>
      <polygon class="cls-10" points="138.2 143.74 138.2 102.66 103.68 123.21 138.2 143.74"/>
      <polygon class="cls-6" points="103.68 164.29 138.2 143.74 103.68 123.21 103.68 164.29"/>
      <polygon class="cls-7" points="69.16 143.74 103.68 164.29 103.68 123.21 69.16 143.74"/>
      <polygon class="cls-2" points="103.68 123.21 69.16 102.66 69.16 143.74 103.68 123.21"/>
      <polygon class="cls-8" points="103.68 82.11 69.16 102.66 103.68 123.21 103.68 82.11"/>
      <polygon class="cls-5" points="138.2 102.66 103.68 82.11 103.68 123.21 138.2 102.66"/>
      <polygon class="cls-8" points="69.15 143.74 69.15 102.66 34.63 123.21 69.15 143.74"/>
      <polygon class="cls-4" points="34.63 164.29 69.15 143.74 34.63 123.21 34.63 164.29"/>
      <polygon class="cls-6" points=".11 143.74 34.63 164.29 34.63 123.21 .11 143.74"/>
      <polygon class="cls-10" points="34.63 123.21 .11 102.66 .11 143.74 34.63 123.21"/>
      <polygon class="cls-7" points="34.63 82.11 .11 102.66 34.63 123.21 34.63 82.11"/>
      <polygon class="cls-2" points="69.15 102.66 34.63 82.11 34.63 123.21 69.15 102.66"/>
      <polygon class="cls-9" points="345.22 61.63 310.7 41.09 310.7 82.18 345.22 61.63"/>
      <polygon class="cls-9" points="173.39 41.42 138.87 20.88 138.87 61.96 173.39 41.42"/>
      <polygon class="cls-3" points="276.18 102.72 310.7 82.18 276.18 61.63 276.18 102.72"/>
      <polygon class="cls-1" points="276.18 61.63 241.65 41.09 241.65 82.18 276.18 61.63"/>
      <polygon class="cls-2" points="276.18 20.55 241.65 41.09 276.18 61.63 276.18 20.55"/>
      <polygon class="cls-13" points="241.65 82.18 241.65 41.09 207.13 61.63 241.65 82.18"/>
      <polygon class="cls-12" points="207.13 102.72 241.65 82.18 207.13 61.63 207.13 102.72"/>
      <polygon class="cls-2" points="172.61 82.18 207.13 102.72 207.13 61.63 172.61 82.18"/>
      <polygon class="cls-15" points="207.13 61.63 172.61 41.09 172.61 82.18 207.13 61.63"/>
      <polygon class="cls-6" points="207.13 20.55 172.61 41.09 207.13 61.63 207.13 20.55"/>
      <polygon class="cls-1" points="241.65 41.09 207.13 20.55 207.13 61.63 241.65 41.09"/>
      <polygon class="cls-7" points="172.61 82.18 172.61 41.09 138.09 61.63 172.61 82.18"/>
      <polygon class="cls-16" points="138.09 102.72 172.61 82.18 138.09 61.63 138.09 102.72"/>
      <polygon class="cls-13" points="103.57 82.18 138.09 102.72 138.09 61.63 103.57 82.18"/>
      <polygon class="cls-2" points="103.57 82.18 103.57 41.09 69.04 61.63 103.57 82.18"/>
      <polygon class="cls-6" points="69.04 102.72 103.57 82.18 69.04 61.63 69.04 102.72"/>
      <polygon class="cls-9" points="34.52 82.18 69.04 102.72 69.04 61.63 34.52 82.18"/>
      <polygon class="cls-13" points="69.04 61.63 34.52 41.09 34.52 82.18 69.04 61.63"/>
      <polygon class="cls-7" points="69.04 20.55 34.52 41.09 69.04 61.63 69.04 20.55"/>
      <polygon class="cls-8" points="103.57 41.09 69.04 20.55 69.04 61.63 103.57 41.09"/>
      <polygon class="cls-10" points="34.52 82.18 34.52 41.09 0 61.63 34.52 82.18"/>
      <polygon class="cls-6" points="0 102.72 34.52 82.18 0 61.63 0 102.72"/>
      <polygon class="cls-7" points="34.52 41.09 0 20.55 0 61.63 34.52 41.09"/>
      <polygon class="cls-12" points="517.55 82.56 552.08 103.1 552.08 62.01 517.55 82.56"/>
      <polygon class="cls-5" points="550.4 174.65 550.4 215.73 584.92 195.18 550.4 174.65"/>
    </g>
  </g>
</svg>