<?xml version="1.0" encoding="UTF-8"?><svg id="Capa_2" xmlns="http://www.w3.org/2000/svg" viewBox="0 0 307.7 367.72"><defs><style>.cls-1{fill:#303030;}</style></defs><g id="Capa_1-2"><path class="cls-1" d="m225.81,37.4c.41.46.81.91,1.22,1.38-.37-.44-.78-.9-1.22-1.38Z"/><path class="cls-1" d="m304.61,327.33c-2.09.23-5.03.64-8.63,1.28-1.8.33-3.79.58-5.88.94-2.09.38-4.35.65-6.69.99-4.68.68-9.77,1.2-14.98,1.63-1.3.12-2.62.15-3.94.24-1.32.06-2.63.19-3.95.2-2.64.05-5.28.17-7.88.11-5.2.03-10.25-.33-14.89-.69-4.64-.48-8.88-.98-12.49-1.61-1.81-.33-3.15-.62-4.1-.95-.96-.31-1.55-.57-1.86-.8-.62-.45-.11-.78.84-1.06.95-.3,2.31-.47,3.47-.82,1.16-.33,2.08-.68,2.12-1.13-7.03-.42-12.12-1.76-16.99-3.32-4.86-1.61-9.55-3.46-15.58-6.03.03-.07-.48-.41-1.44-.97-.98-.53-2.31-1.39-3.98-2.41-2.84-1.83-6.51-4.39-10.07-7.64,1.15-.15,2.3-.32,3.45-.5,4.65-.7,9.34-1.55,14.1-2.61,9.5-2.15,19.32-5.09,29.2-10.16,4.93-2.54,9.86-5.66,14.51-9.52,4.64-3.87,8.97-8.54,12.54-13.77,3.58-5.22,6.37-10.98,8.29-16.75.47-1.44.88-2.88,1.3-4.33.36-1.44.69-2.87,1.01-4.31.27-1.42.51-2.84.75-4.26.12-.71.18-1.4.27-2.1l.15-1.3.15-1.46c.14-1.8.17-3.53.09-5.26-.07-3.85-.71-8.7-2.3-13.83-.19-.63-.44-1.33-.66-1.95-.21-.63-.46-1.26-.71-1.88-.49-1.27-1.07-2.51-1.67-3.77-1.25-2.48-2.68-4.97-4.34-7.25-3.25-4.65-7.22-8.55-11.01-11.56-3.79-3.01-7.41-5.21-10.27-6.69-5.82-2.87-11.66-4.79-17.34-6.11-5.69-1.32-11.23-2.06-16.65-2.46l-2.04-.15-2.5-.06c-1.68-.01-3.37-.09-5.06.05-1.69.11-3.39.18-5.08.39-1.69.23-3.37.48-5.06.74-6.71,1.27-13.25,3.46-19.34,6.42-12.21,5.93-22.57,14.82-30.36,25.25-3.92,5.21-7.25,10.81-9.98,16.65-2.74,5.84-4.78,11.96-6.26,18.19-.48,1.89-.84,3.8-1.17,5.72-3.24-1.47-6.48-3.04-9.69-4.68-3.77-1.94-7.51-4-11.14-6.14-3.62-2.15-7.19-4.39-10.44-6.66-1.64-1.13-3.17-2.26-4.44-3.32-.66-.55-1.36-1.03-2-1.61l-1.93-1.74c-.32-.29-.66-.56-.96-.88l-.92-.94-1.86-1.87-1.76-2.01-.89-1c-.29-.34-.56-.71-.84-1.06l-1.68-2.12c-.56-.71-1.05-1.49-1.58-2.22l-.79-1.12-.4-.56-.36-.59-1.47-2.34c-.51-.76-.95-1.59-1.4-2.4l-1.37-2.43-1.25-2.52c-.42-.84-.86-1.67-1.21-2.55-3.11-6.87-5.52-14.18-7.18-21.63-.3-1.67-.66-3.33-1.06-4.78-.34-1.46-.68-2.71-1.02-3.53-.68-1.64-1.27-1.6-1.4,1.93-.97-6.88-1.35-13.9-1.14-20.86.06-3.49.21-5.65.13-7.19-.04-.77-.08-1.38-.11-1.9-.04-.52-.1-.97-.16-1.42-.11-.89-.25-1.8-.21-3.34.04-.77.12-1.7.26-2.87.08-.59.16-1.23.25-1.95.14-.71.3-1.49.47-2.34,2.45-13.81,7.46-27.04,14.93-38.34,3.77-5.72,8.27-11.2,13.22-16.21,4.97-5.03,10.45-9.65,16.31-13.82,11.74-8.34,25.05-14.83,38.94-19.27,6.95-2.21,14.04-3.94,21.15-5.02,7.1-1.08,14.21-1.58,21.07-1.37,6.81.27,13.45,1.18,19.05,3.01l1.06.32.93.37.94.36c.31.11.63.23.94.39.63.3,1.27.6,1.9.89.64.3,1.27.7,1.91,1.03l.96.52.95.6,1.9,1.21c1.23.93,2.51,1.74,3.71,2.78,2.47,1.9,4.76,4.19,7.01,6.49l1.62,1.82.82.91.76.96,1.54,1.91c.5.65.96,1.33,1.45,1.99,1,1.3,1.85,2.72,2.76,4.09.47.68.85,1.41,1.27,2.12l1.24,2.14c1.51,2.93,2.98,5.89,4.13,8.96,2.38,6.12,3.99,12.49,4.73,18.91.69,6.43.53,12.91-.49,19.3-2.02,12.79-7.65,25.15-15.86,36.45,4.3-5.5,7.77-10.93,10.55-16.38,2.76-5.45,4.89-10.93,6.22-16.57,1.34-5.64,2-11.42,1.85-17.42-.16-5.99-1.1-12.22-3.12-18.6.29-.08.72-.21.81-1.12.05-.46.01-1.12-.17-2.07-.1-.47-.19-1.04-.4-1.66-.21-.62-.46-1.33-.77-2.14-3.58-9.66-9.41-19.11-16.71-26.71-3.64-3.8-7.62-7.14-11.71-9.79-1.03-.62-2.03-1.35-3.08-1.86-1.03-.56-2.05-1.16-3.08-1.59-.51-.24-1.02-.48-1.53-.72-.51-.21-1.01-.38-1.52-.58-.51-.19-.98-.4-1.52-.58-.55-.17-1.1-.34-1.65-.5-4.39-1.34-9.08-2.16-13.67-2.64-4.6-.46-9.11-.64-13.38-.55-8.52.13-15.96,1.02-21.58,1.58-.93.13-1.87.22-2.85.33-.97.13-1.97.26-3.03.39-1.06.13-2.19.27-3.39.49-1.2.21-2.5.42-3.9.71-5.6,1.17-13.07,3.22-23.43,8.23,6.89-3.38,14.03-6.24,21.33-8.57-.18-.57-.54-1.7-.54-1.7-7.43,2.22-15.19,5.13-22.86,8.8-7.66,3.69-15.23,8.11-22.33,13.18-7.12,5.04-13.68,10.81-19.46,16.94-.72.77-1.44,1.54-2.16,2.3-.68.79-1.36,1.58-2.03,2.37-.66.79-1.37,1.56-1.99,2.37-.63.81-1.26,1.62-1.88,2.42-1.29,1.58-2.37,3.24-3.51,4.84-.28.4-.56.8-.84,1.2-.27.4-.52.83-.78,1.23-.51.82-1.02,1.64-1.53,2.45,0,0-1.03-.6-1.55-.9-.69,1.1-1.28,2.26-1.89,3.4-.59,1.15-1.25,2.28-1.8,3.46-1.09,2.36-2.25,4.69-3.18,7.13-1.22,1.61-1.79,1.8-1.79.79,0-.51.14-1.31.4-2.39.13-.54.29-1.15.49-1.81.22-.65.48-1.37.77-2.15.58-1.55,1.24-3.35,2.17-5.27.45-.97.93-1.98,1.43-3.04.53-1.05,1.14-2.11,1.74-3.22,1.17-2.26,2.7-4.51,4.22-6.95,1.67-2.35,3.37-4.86,5.38-7.29,3.92-4.92,8.49-9.91,13.6-14.56,5.1-4.65,10.67-9.01,16.39-12.87,5.72-3.87,11.57-7.26,17.18-10.13,5.63-2.84,11-5.14,15.73-7.03-.21-.56-.63-1.67-.84-2.23-5.14,1.97-10.22,4.1-15.16,6.54l-.53-1.07c5.58-2.78,11.24-5.1,16.88-7.17,1.42-.49,2.81-1.04,4.23-1.48,1.42-.45,2.83-.91,4.24-1.36,2.84-.82,5.66-1.65,8.51-2.32,11.34-2.82,22.75-4.34,34.21-4.43,5.73-.04,11.46.33,17.17,1.23,5.7.91,11.38,2.31,16.86,4.58.88.37,1.75.77,2.62,1.18.12-.26.23-.53-.62-1.17-.79-.61-2.49-1.55-5.95-2.73,3.78,1.26,7.59,2.88,11.19,4.99,3.89,2.25,7.71,4.81,11.24,7.81,3.55,2.97,6.96,6.22,10.05,9.79,1.61,1.73,3.02,3.63,4.52,5.46l2.09,2.88c.34.48.7.95,1.03,1.45l.97,1.49c10.54,15.83,16.19,34.62,16.95,51.62.18,2.12.43,3.2.67,3.2.28,0,.55-1.06.82-3.23.31-2.17.42-5.44.21-9.8-.19-2.17-.32-4.64-.81-7.33-.37-2.72-1.06-5.64-1.85-8.84-1.86-6.31-4.18-11.89-6.73-17.03-2.53-5.16-5.43-9.81-8.62-14.25-1.56-2.25-3.32-4.35-5.06-6.51-.93-1.03-1.86-2.07-2.8-3.12-.46-.53-.96-1.04-1.47-1.54-.5-.51-1.01-1.01-1.52-1.52-4.12-4.04-8.79-7.97-14.43-11.57l.64-1.01c1.95,1.17,3.84,2.63,5.87,4.09,1.93,1.57,3.96,3.18,5.87,5.01,3.88,3.6,7.68,7.67,11.03,12.07,6.8,8.73,12.06,18.5,15.48,26.67.93,2.01,1.11,1.96.9.84-.22-1.11-.75-3.3-1.5-5.42-.35-1.07-.7-2.14-1.01-3.08-.33-.93-.63-1.73-.79-2.28-.33-1.1-.17-1.19.99.76.54,1,.97,2.05,1.44,3.08l1.39,3.1,1.24,3.17c.4,1.06.86,2.1,1.2,3.18.71,2.16,1.54,4.28,2.15,6.48l1,3.28c.33,1.09.59,2.21.89,3.32-1.34-6.73-3.51-13.87-6.59-20.91-3.07-7.04-7.03-13.98-11.72-20.41-4.68-6.43-10.07-12.36-15.92-17.48-5.83-5.14-12.19-9.38-18.61-12.6-1.06-.56-2.1-1.17-3.18-1.68-1.1-.5-2.17-.99-3.22-1.47-.26-.12-.52-.24-.78-.36-.25-.1-.51-.2-.76-.3-.5-.2-.99-.39-1.47-.58-.95-.37-1.86-.77-2.69-1.07-1.67-.61-3.06-1.15-4.02-1.63-.96-.42-1.49-.79-1.43-1.08-5.82-1.09-11.44-1.66-16.87-1.86-5.43-.21-10.67-.17-15.73.16-10.12.57-19.5,2.05-28.25,3.84-17.49,3.64-32.38,8.85-45.05,14.15-1.06.43-2.61,1.16-4.54,2.16-.95.54-2,1.13-3.14,1.78-1.13.66-2.36,1.35-3.62,2.18-5.12,3.16-11.19,7.56-17.34,12.82-5.97,5.1-11.96,11.09-17.27,17.39-2.46,2.79-4.82,5.7-7.09,8.69-.77.96-1.48,2.02-2.21,3.05l-2.17,3.12c-1.39,2.11-2.68,4.27-4.02,6.42-5.09,8.72-9.15,17.98-12.25,27.51C1.47,122.47-.91,142.59.31,162.56c1.29,19.96,6.14,39.9,15.21,58.45,4.56,9.25,10.27,18.1,17.11,26.18,3.38,4.07,7.18,7.85,11.13,11.47.99.91,2.05,1.74,3.08,2.61,1.03.84,2.08,1.75,3.11,2.53,2.05,1.57,4.07,3.06,6.1,4.47,8.1,5.65,16.28,10.52,24.73,15,8.43,4.47,17.1,8.48,26.1,11.97,3.24,1.26,6.52,2.44,9.86,3.54.24.67.52,1.31.78,1.97.57,1.39,1.14,2.77,1.71,4.16.62,1.35,1.27,2.68,1.91,4.01l.97,1.99c.33.66.74,1.36,1.1,2.03.76,1.35,1.49,2.73,2.31,4.03.83,1.29,1.66,2.58,2.49,3.87.85,1.27,1.77,2.47,2.65,3.7.88,1.24,1.83,2.4,2.78,3.55,1.87,2.35,3.89,4.49,5.9,6.63,1.03,1.04,2.08,2.03,3.12,3.04.53.5,1.04,1.01,1.58,1.48l1.62,1.41c8.62,7.54,18,13.22,27.36,17.6,1.16.58,2.35,1.04,3.51,1.53,1.17.48,2.33.96,3.48,1.4,2.33.8,4.61,1.63,6.87,2.27,4.52,1.31,8.89,2.28,13.04,2.92,8.29,1.32,15.65,1.52,21.68,1.22,6.04-.25,10.76-.96,13.98-1.55,1.61-.28,2.85-.52,3.67-.73.83-.2,1.26-.31,1.26-.31,4.64-.62,9.14-1.89,11.33-2.91,1.09-.56,1.61-1.06,1.29-1.44-.32-.38-1.46-.62-3.72-.8-2.24.06-4.9.19-7.85.15-1.47-.02-3.01.05-4.61-.04-1.6-.06-3.25-.12-4.94-.18-6.75-.38-14.06-1.26-20.73-2.64-6.68-1.32-12.69-3.26-16.93-4.96-4.25-1.71-6.72-3.23-6.5-3.77.05-.14.62-.04,1.57.24.94.29,2.29.69,3.9,1.18.8.25,1.67.53,2.59.81.92.28,1.9.53,2.91.82,1.01.28,2.06.57,3.12.86,1.07.25,2.16.51,3.25.76.07-.29.55-.52,1.35-.7.8-.17,1.93-.33,3.28-.48,1.36-.15,2.93-.23,4.65-.36,1.72-.15,3.58-.27,5.49-.39,1.91-.18,3.88-.34,5.81-.47,1.94-.2,3.84-.38,5.63-.52,1.79-.16,3.48-.36,4.98-.46,1.5-.09,2.81-.2,3.86-.23,1.05-.19,2.76-.36,4.94-.69,1.09-.17,2.3-.36,3.61-.56.65-.1,1.33-.21,2.03-.32.7-.13,1.42-.27,2.16-.41,5.93-1.03,13.03-2.74,19.96-4.83,13.94-4.04,26.92-10.31,30.51-12.27,5.62-2.66,5.29-3.49,1.16-3.09ZM23.95,70.13l.03-.04c-.37.6-.72,1.18-1.08,1.77l.12-.21c.31-.51.6-1.02.92-1.52Zm135.87,181.98c.28-1.41.62-2.42.77-3.22.09-.39.13-.73.18-1.01.06-.28.09-.5.1-.69.04-.75-.24-.85-.52-.95q.56.2,1.12.41c.39-2.88,2.22-6.85,4.65-10.26,2.4-3.46,5.33-6.29,7.16-8.2q.39.45.78.91c1.76-1.88,3.77-3.45,5.89-4.68,2.14-1.19,4.38-2.01,6.63-2.55.57-.1,1.12-.29,1.69-.35.57-.06,1.13-.14,1.69-.24,1.14-.04,2.26-.18,3.41-.11h.85c.33,0,.79.04,1.18.06.81.06,1.64.07,2.42.14.78.07,1.57.13,2.36.18l2.27.24q-.09.59-.19,1.18c2.91.46,5.46,1.15,7.09,1.81,1.66.65,2.44,1.23,2.31,1.49q-.25.54-.51,1.08c.82.51,1.63,1.06,2.31,1.53.67.47,1.15.87,1.47,1.19.32.32.49.59.53.82.03.11,0,.22-.04.3-.06.09-.15.16-.3.2q.56-.22,1.11-.43c.11.29.19.7.14,1.01-.02.04-.02.01-.02.1l-.07.79c-.07.51-.17.98-.23,1.47-.06.5-.18.93-.28,1.38-.1.45-.18.9-.32,1.29-.13.4-.21.83-.36,1.2-.14.37-.28.74-.4,1.11-.32.68-.59,1.37-.94,1.97-.67,1.23-1.42,2.32-2.29,3.34-.9,1.01-1.93,1.96-3.1,2.9-4.73,3.72-12.21,6.73-20.82,8.74-6.53,1.46-13.96,2.56-21.79,3.39-2.16.2-4.54.24-7.07.13.15-2.29.48-4.85,1.14-7.67Z"/><path class="cls-1" d="m202.39,18.95c.51.28,1.05.58,1.62.88.56.31,1.14.62,1.74.95.6.32,1.18.73,1.8,1.1,1.22.77,2.51,1.55,3.74,2.48.62.45,1.26.9,1.89,1.36.64.45,1.23.97,1.85,1.45,4.25,3.37,8.08,7.2,10.8,10.22-3.75-4.2-7.8-8-12.14-11.3-4.03-3.07-8.3-5.74-12.79-7.87,0,0,0,.01,0,.02.47.22.99.45,1.51.71Z"/></g></svg>