<?xml version="1.0" encoding="UTF-8"?>
<svg xmlns="http://www.w3.org/2000/svg" version="1.1" viewBox="0 0 360 360">
  <defs>
    <style>
      .cls-1 {
        fill: #a8518a;
      }

      .cls-1, .cls-2, .cls-3 {
        fill-rule: evenodd;
      }

      .cls-2 {
        fill: #017680;
      }

      .cls-3 {
        fill: #ef8819;
      }
    </style>
  </defs>
  <!-- Generator: Adobe Illustrator 28.7.1, SVG Export Plug-In . SVG Version: 1.2.0 Build 142)  -->
  <g>
    <g id="Capa_2">
      <g id="_105553200404800">
        <path class="cls-2" d="M314.1,71.9c1.3-8.1-3.7-14-8.5-16.3-3.1-1.5-7-2.1-10.8-1.2-4,1.1-5.6,2.4-7.8,4.7-2.1,2.1-6.9,8.8-11.8,13.7-21.4,21.8-52,37.1-88.4,38.4-39.6,1.4-80.7-19-103.4-49.3-2.1-2.8-3.3-4.5-6.7-6.3-9.3-4.7-21,.5-22.8,11.4-1.4,8.5,4.1,13.5,7.5,17.7,1.5,1.9,7.4,8.8,9.1,10.1,1.4,1.1,1.8,2,3.1,3.2,1.3,1.3,2.2,2,3.6,3.1l6.7,5.8c1.4,1.2,2.1,1.7,3.5,2.8,4.8,3.5,9.5,7,14.9,10.2,50.3,29.1,109.1,30.7,160,1.9,9.9-5.6,14.5-9.2,22.8-15.7,5.3-4.1,11.8-10.4,16.3-15.5,4.2-4.9,11.6-11.6,12.7-18.8h0Z"/>
        <path class="cls-3" d="M351.7,146c1.2-7.8-3.7-13.8-8.4-16.1-6.1-3.1-14.4-1.2-21.1.3-20.3,4.4-36.9,10.8-53.6,21.3-13.8,8.7-23.2,17.1-34,28.4l-5.5,6.6c-30.4,37-46.5,97.6-25.1,154.7,2.7,7.2,4.4,12.1,10.1,15,12.7,6.5,28.4-5.6,21-21.8-14-30.4-11.4-73.9,2.6-102.5,4.4-9,12.7-23.2,19.8-30.4,2.3-2.3,3.9-4.4,6.1-6.4,1.2-1.1,2.1-1.8,3.2-3,1.3-1.4,2-1.7,3.4-2.9,12.9-11.6,31.3-20.9,48.6-25.9,14-4,30.3-1.2,32.8-17.2h0Z"/>
        <path class="cls-1" d="M8.2,140.5c1.2,16.4,20.3,14.6,31.8,17.8,13,3.6,24.5,8.7,34.6,15.2,8.3,5.3,17.7,12.6,24.3,19.6,34,36.3,45.2,87.4,26,136.2-2.9,7.3-3.2,13,1.6,18.5,3.8,4.3,10.5,7.4,18.2,4.2,6.1-2.5,8-7.6,10.5-14.2,10-26.6,13.4-56.7,7.5-86.8-5.7-29-17.1-49.8-31.3-68.3l-11.9-13.2c-1.1-1-1.9-2.2-3.1-3.2-12.2-11-24.3-20.4-40.3-27.9-10.4-4.8-46.7-19.2-58.9-13.6-4.9,2.3-9.5,7.9-9,15.5h0Z"/>
        <path class="cls-2" d="M218.7,2.6c-10.6,2.5-19.9,12.8-17.1,26.4,2.2,10.4,12.9,20.3,26.6,17.1,10.4-2.5,19.6-12.6,16.9-26-2.5-12.5-15-20.2-26.4-17.5Z"/>
        <path class="cls-3" d="M359.7,235.1c2.3-13.3-7.6-23.8-18.6-25.6-13.2-2.1-23.3,7.4-25.2,18.3-2.4,13.4,7.4,24.2,18.5,25.7,13.3,1.9,23.4-7.3,25.3-18.4h0Z"/>
        <path class="cls-2" d="M139.8,2.7c-10.5,2.4-19.7,12.6-17,26.1,2.1,10.6,12.9,20.3,26.5,17.3,10.3-2.3,19.9-12.7,17.1-26.2C163.6,7.2,151.2,0,139.8,2.7h0Z"/>
        <path class="cls-1" d="M39.6,297.9c1.3,11.6,11.3,20.6,24.5,19.6,11.2-.9,21.1-11.9,19.7-24.6-1.2-11.2-11.6-21.2-24.7-19.6-11.4,1.4-21,11.4-19.5,24.6h0Z"/>
        <path class="cls-1" d="M44.3,230.1c2.1-13-7.8-23.4-18.7-25-13.3-2.1-23.7,7.8-25.3,18.9-1.9,13.3,7.7,23.4,18.9,25.2,13.2,2.1,23.3-7.9,25.1-19Z"/>
        <path class="cls-3" d="M320.3,302.9c1.9-13-7.8-23.3-18.6-25-13.4-2.1-23.8,7.7-25.4,18.8-1.9,13.1,7.9,23.9,18.9,25.2,13.4,1.6,23.4-7.6,25.1-19h0Z"/>
      </g>
    </g>
  </g>
</svg>